<svg xmlns="http://www.w3.org/2000/svg" xmlns:xlink="http://www.w3.org/1999/xlink" width="1920" zoomAndPan="magnify" viewBox="0 0 1440 809.999993" height="1080" preserveAspectRatio="xMidYMid meet" version="1.0"><defs><clipPath id="d5172890ba"><path d="M 402 704.148438 L 504 704.148438 L 504 810 L 402 810 Z M 402 704.148438 " clip-rule="nonzero"/></clipPath><clipPath id="1c828ee22a"><path d="M 1280 197.464844 L 1372 197.464844 L 1372 302.464844 L 1280 302.464844 Z M 1280 197.464844 " clip-rule="nonzero"/></clipPath><clipPath id="8476963369"><path d="M 88 89 L 316 89 L 316 315 L 88 315 Z M 88 89 " clip-rule="nonzero"/></clipPath><clipPath id="df826821d6"><path d="M 70.933594 143.035156 L 269.519531 74.742188 L 337.324219 271.910156 L 138.742188 340.203125 Z M 70.933594 143.035156 " clip-rule="nonzero"/></clipPath><clipPath id="f86915d319"><path d="M 70.933594 143.035156 L 269.519531 74.742188 L 337.324219 271.910156 L 138.742188 340.203125 Z M 70.933594 143.035156 " clip-rule="nonzero"/></clipPath><clipPath id="bfe9dd990e"><path d="M 88 89 L 316 89 L 316 287 L 88 287 Z M 88 89 " clip-rule="nonzero"/></clipPath><clipPath id="45af8ca5c6"><path d="M 70.933594 143.035156 L 269.519531 74.742188 L 337.324219 271.910156 L 138.742188 340.203125 Z M 70.933594 143.035156 " clip-rule="nonzero"/></clipPath><clipPath id="7f5480e32c"><path d="M 70.933594 143.035156 L 269.519531 74.742188 L 337.324219 271.910156 L 138.742188 340.203125 Z M 70.933594 143.035156 " clip-rule="nonzero"/></clipPath><clipPath id="606c23741a"><path d="M 180 243 L 194 243 L 194 257 L 180 257 Z M 180 243 " clip-rule="nonzero"/></clipPath><clipPath id="353d4e62b7"><path d="M 70.933594 143.035156 L 269.519531 74.742188 L 337.324219 271.910156 L 138.742188 340.203125 Z M 70.933594 143.035156 " clip-rule="nonzero"/></clipPath><clipPath id="d517ceb2b3"><path d="M 70.933594 143.035156 L 269.519531 74.742188 L 337.324219 271.910156 L 138.742188 340.203125 Z M 70.933594 143.035156 " clip-rule="nonzero"/></clipPath><clipPath id="d18b9b6256"><path d="M 232 225 L 246 225 L 246 239 L 232 239 Z M 232 225 " clip-rule="nonzero"/></clipPath><clipPath id="8247a0d831"><path d="M 70.933594 143.035156 L 269.519531 74.742188 L 337.324219 271.910156 L 138.742188 340.203125 Z M 70.933594 143.035156 " clip-rule="nonzero"/></clipPath><clipPath id="39bd8cf7ff"><path d="M 70.933594 143.035156 L 269.519531 74.742188 L 337.324219 271.910156 L 138.742188 340.203125 Z M 70.933594 143.035156 " clip-rule="nonzero"/></clipPath><clipPath id="bbec1a94bb"><path d="M 208 249 L 220 249 L 220 264 L 208 264 Z M 208 249 " clip-rule="nonzero"/></clipPath><clipPath id="985d3e0201"><path d="M 70.933594 143.035156 L 269.519531 74.742188 L 337.324219 271.910156 L 138.742188 340.203125 Z M 70.933594 143.035156 " clip-rule="nonzero"/></clipPath><clipPath id="6526c4c022"><path d="M 70.933594 143.035156 L 269.519531 74.742188 L 337.324219 271.910156 L 138.742188 340.203125 Z M 70.933594 143.035156 " clip-rule="nonzero"/></clipPath><clipPath id="45b00f123d"><path d="M 215 249 L 232 249 L 232 259 L 215 259 Z M 215 249 " clip-rule="nonzero"/></clipPath><clipPath id="1cce5c18e8"><path d="M 70.933594 143.035156 L 269.519531 74.742188 L 337.324219 271.910156 L 138.742188 340.203125 Z M 70.933594 143.035156 " clip-rule="nonzero"/></clipPath><clipPath id="f4d2770bfd"><path d="M 70.933594 143.035156 L 269.519531 74.742188 L 337.324219 271.910156 L 138.742188 340.203125 Z M 70.933594 143.035156 " clip-rule="nonzero"/></clipPath><clipPath id="52ae7d4556"><path d="M 226 102 L 265 102 L 265 140 L 226 140 Z M 226 102 " clip-rule="nonzero"/></clipPath><clipPath id="082583f02d"><path d="M 70.933594 143.035156 L 269.519531 74.742188 L 337.324219 271.910156 L 138.742188 340.203125 Z M 70.933594 143.035156 " clip-rule="nonzero"/></clipPath><clipPath id="04775316e9"><path d="M 70.933594 143.035156 L 269.519531 74.742188 L 337.324219 271.910156 L 138.742188 340.203125 Z M 70.933594 143.035156 " clip-rule="nonzero"/></clipPath><clipPath id="d9c98354c8"><path d="M 100 152 L 138 152 L 138 193 L 100 193 Z M 100 152 " clip-rule="nonzero"/></clipPath><clipPath id="b896a00979"><path d="M 70.933594 143.035156 L 269.519531 74.742188 L 337.324219 271.910156 L 138.742188 340.203125 Z M 70.933594 143.035156 " clip-rule="nonzero"/></clipPath><clipPath id="45afd8e014"><path d="M 70.933594 143.035156 L 269.519531 74.742188 L 337.324219 271.910156 L 138.742188 340.203125 Z M 70.933594 143.035156 " clip-rule="nonzero"/></clipPath><clipPath id="e8684b00ad"><path d="M 272 222 L 293 222 L 293 236 L 272 236 Z M 272 222 " clip-rule="nonzero"/></clipPath><clipPath id="168dce9c84"><path d="M 70.933594 143.035156 L 269.519531 74.742188 L 337.324219 271.910156 L 138.742188 340.203125 Z M 70.933594 143.035156 " clip-rule="nonzero"/></clipPath><clipPath id="96331f1e50"><path d="M 70.933594 143.035156 L 269.519531 74.742188 L 337.324219 271.910156 L 138.742188 340.203125 Z M 70.933594 143.035156 " clip-rule="nonzero"/></clipPath><clipPath id="c6714d5f69"><path d="M 275 235 L 298 235 L 298 244 L 275 244 Z M 275 235 " clip-rule="nonzero"/></clipPath><clipPath id="a722079095"><path d="M 70.933594 143.035156 L 269.519531 74.742188 L 337.324219 271.910156 L 138.742188 340.203125 Z M 70.933594 143.035156 " clip-rule="nonzero"/></clipPath><clipPath id="578de19d37"><path d="M 70.933594 143.035156 L 269.519531 74.742188 L 337.324219 271.910156 L 138.742188 340.203125 Z M 70.933594 143.035156 " clip-rule="nonzero"/></clipPath><clipPath id="eb3fafcab8"><path d="M 139 270 L 162 270 L 162 278 L 139 278 Z M 139 270 " clip-rule="nonzero"/></clipPath><clipPath id="9670a13240"><path d="M 70.933594 143.035156 L 269.519531 74.742188 L 337.324219 271.910156 L 138.742188 340.203125 Z M 70.933594 143.035156 " clip-rule="nonzero"/></clipPath><clipPath id="7ac6f5dc32"><path d="M 70.933594 143.035156 L 269.519531 74.742188 L 337.324219 271.910156 L 138.742188 340.203125 Z M 70.933594 143.035156 " clip-rule="nonzero"/></clipPath><clipPath id="e054d0203d"><path d="M 143 279 L 165 279 L 165 291 L 143 291 Z M 143 279 " clip-rule="nonzero"/></clipPath><clipPath id="65056d049f"><path d="M 70.933594 143.035156 L 269.519531 74.742188 L 337.324219 271.910156 L 138.742188 340.203125 Z M 70.933594 143.035156 " clip-rule="nonzero"/></clipPath><clipPath id="a51818923a"><path d="M 70.933594 143.035156 L 269.519531 74.742188 L 337.324219 271.910156 L 138.742188 340.203125 Z M 70.933594 143.035156 " clip-rule="nonzero"/></clipPath><clipPath id="da499ba26f"><path d="M 207 240 L 224 240 L 224 252 L 207 252 Z M 207 240 " clip-rule="nonzero"/></clipPath><clipPath id="35bac7bfa4"><path d="M 70.933594 143.035156 L 269.519531 74.742188 L 337.324219 271.910156 L 138.742188 340.203125 Z M 70.933594 143.035156 " clip-rule="nonzero"/></clipPath><clipPath id="eead71d730"><path d="M 70.933594 143.035156 L 269.519531 74.742188 L 337.324219 271.910156 L 138.742188 340.203125 Z M 70.933594 143.035156 " clip-rule="nonzero"/></clipPath><clipPath id="aca9528d7a"><path d="M 168 264 L 185 264 L 185 281 L 168 281 Z M 168 264 " clip-rule="nonzero"/></clipPath><clipPath id="ae69cceb07"><path d="M 70.933594 143.035156 L 269.519531 74.742188 L 337.324219 271.910156 L 138.742188 340.203125 Z M 70.933594 143.035156 " clip-rule="nonzero"/></clipPath><clipPath id="83db6e67db"><path d="M 70.933594 143.035156 L 269.519531 74.742188 L 337.324219 271.910156 L 138.742188 340.203125 Z M 70.933594 143.035156 " clip-rule="nonzero"/></clipPath><clipPath id="c3e3a2ea17"><path d="M 253 235 L 270 235 L 270 251 L 253 251 Z M 253 235 " clip-rule="nonzero"/></clipPath><clipPath id="c21e325c12"><path d="M 70.933594 143.035156 L 269.519531 74.742188 L 337.324219 271.910156 L 138.742188 340.203125 Z M 70.933594 143.035156 " clip-rule="nonzero"/></clipPath><clipPath id="39f8a3c9a4"><path d="M 70.933594 143.035156 L 269.519531 74.742188 L 337.324219 271.910156 L 138.742188 340.203125 Z M 70.933594 143.035156 " clip-rule="nonzero"/></clipPath><clipPath id="1594b755c3"><path d="M 1098 521 L 1307 521 L 1307 702 L 1098 702 Z M 1098 521 " clip-rule="nonzero"/></clipPath><clipPath id="f280973c87"><path d="M 1133.820312 472.179688 L 1344.398438 549.28125 L 1278.648438 728.871094 L 1068.066406 651.773438 Z M 1133.820312 472.179688 " clip-rule="nonzero"/></clipPath><clipPath id="9a4eb09bdf"><path d="M 1133.820312 472.179688 L 1344.398438 549.28125 L 1278.648438 728.871094 L 1068.066406 651.773438 Z M 1133.820312 472.179688 " clip-rule="nonzero"/></clipPath><clipPath id="155b6074a5"><path d="M 1265 549 L 1330 549 L 1330 618 L 1265 618 Z M 1265 549 " clip-rule="nonzero"/></clipPath><clipPath id="5a4fb49fa3"><path d="M 1133.820312 472.179688 L 1344.398438 549.28125 L 1278.648438 728.871094 L 1068.066406 651.773438 Z M 1133.820312 472.179688 " clip-rule="nonzero"/></clipPath><clipPath id="64febfcb65"><path d="M 1133.820312 472.179688 L 1344.398438 549.28125 L 1278.648438 728.871094 L 1068.066406 651.773438 Z M 1133.820312 472.179688 " clip-rule="nonzero"/></clipPath><clipPath id="cb76aae15c"><path d="M 1121 486 L 1187 486 L 1187 552 L 1121 552 Z M 1121 486 " clip-rule="nonzero"/></clipPath><clipPath id="c658390247"><path d="M 1133.820312 472.179688 L 1344.398438 549.28125 L 1278.648438 728.871094 L 1068.066406 651.773438 Z M 1133.820312 472.179688 " clip-rule="nonzero"/></clipPath><clipPath id="e636caa0d3"><path d="M 1133.820312 472.179688 L 1344.398438 549.28125 L 1278.648438 728.871094 L 1068.066406 651.773438 Z M 1133.820312 472.179688 " clip-rule="nonzero"/></clipPath><clipPath id="18bbd37e3b"><path d="M 1283 557 L 1323 557 L 1323 604 L 1283 604 Z M 1283 557 " clip-rule="nonzero"/></clipPath><clipPath id="0b8b394abf"><path d="M 1133.820312 472.179688 L 1344.398438 549.28125 L 1278.648438 728.871094 L 1068.066406 651.773438 Z M 1133.820312 472.179688 " clip-rule="nonzero"/></clipPath><clipPath id="8fd0278f20"><path d="M 1133.820312 472.179688 L 1344.398438 549.28125 L 1278.648438 728.871094 L 1068.066406 651.773438 Z M 1133.820312 472.179688 " clip-rule="nonzero"/></clipPath><clipPath id="0c79695017"><path d="M 1130 498 L 1172 498 L 1172 543 L 1130 543 Z M 1130 498 " clip-rule="nonzero"/></clipPath><clipPath id="581fbb75a4"><path d="M 1133.820312 472.179688 L 1344.398438 549.28125 L 1278.648438 728.871094 L 1068.066406 651.773438 Z M 1133.820312 472.179688 " clip-rule="nonzero"/></clipPath><clipPath id="5a082f7c0a"><path d="M 1133.820312 472.179688 L 1344.398438 549.28125 L 1278.648438 728.871094 L 1068.066406 651.773438 Z M 1133.820312 472.179688 " clip-rule="nonzero"/></clipPath><clipPath id="aad92d7556"><path d="M 1169 598 L 1184 598 L 1184 614 L 1169 614 Z M 1169 598 " clip-rule="nonzero"/></clipPath><clipPath id="062b907076"><path d="M 1133.820312 472.179688 L 1344.398438 549.28125 L 1278.648438 728.871094 L 1068.066406 651.773438 Z M 1133.820312 472.179688 " clip-rule="nonzero"/></clipPath><clipPath id="1543166c5b"><path d="M 1133.820312 472.179688 L 1344.398438 549.28125 L 1278.648438 728.871094 L 1068.066406 651.773438 Z M 1133.820312 472.179688 " clip-rule="nonzero"/></clipPath><clipPath id="3ca223c577"><path d="M 1226 619 L 1242 619 L 1242 635 L 1226 635 Z M 1226 619 " clip-rule="nonzero"/></clipPath><clipPath id="1c34a6d6c5"><path d="M 1133.820312 472.179688 L 1344.398438 549.28125 L 1278.648438 728.871094 L 1068.066406 651.773438 Z M 1133.820312 472.179688 " clip-rule="nonzero"/></clipPath><clipPath id="4f70f63fda"><path d="M 1133.820312 472.179688 L 1344.398438 549.28125 L 1278.648438 728.871094 L 1068.066406 651.773438 Z M 1133.820312 472.179688 " clip-rule="nonzero"/></clipPath><clipPath id="fcb4552a04"><path d="M 1261 650 L 1287 650 L 1287 658 L 1261 658 Z M 1261 650 " clip-rule="nonzero"/></clipPath><clipPath id="bcfdae72d2"><path d="M 1133.820312 472.179688 L 1344.398438 549.28125 L 1278.648438 728.871094 L 1068.066406 651.773438 Z M 1133.820312 472.179688 " clip-rule="nonzero"/></clipPath><clipPath id="13c635f859"><path d="M 1133.820312 472.179688 L 1344.398438 549.28125 L 1278.648438 728.871094 L 1068.066406 651.773438 Z M 1133.820312 472.179688 " clip-rule="nonzero"/></clipPath><clipPath id="97850b2f0d"><path d="M 1258 658 L 1282 658 L 1282 672 L 1258 672 Z M 1258 658 " clip-rule="nonzero"/></clipPath><clipPath id="81c3aa6bfa"><path d="M 1133.820312 472.179688 L 1344.398438 549.28125 L 1278.648438 728.871094 L 1068.066406 651.773438 Z M 1133.820312 472.179688 " clip-rule="nonzero"/></clipPath><clipPath id="5d784b8864"><path d="M 1133.820312 472.179688 L 1344.398438 549.28125 L 1278.648438 728.871094 L 1068.066406 651.773438 Z M 1133.820312 472.179688 " clip-rule="nonzero"/></clipPath><clipPath id="3b4403f25a"><path d="M 1117 594 L 1141 594 L 1141 609 L 1117 609 Z M 1117 594 " clip-rule="nonzero"/></clipPath><clipPath id="d3dd37303f"><path d="M 1133.820312 472.179688 L 1344.398438 549.28125 L 1278.648438 728.871094 L 1068.066406 651.773438 Z M 1133.820312 472.179688 " clip-rule="nonzero"/></clipPath><clipPath id="f775cec109"><path d="M 1133.820312 472.179688 L 1344.398438 549.28125 L 1278.648438 728.871094 L 1068.066406 651.773438 Z M 1133.820312 472.179688 " clip-rule="nonzero"/></clipPath><clipPath id="e2ebdeee6d"><path d="M 1112 607 L 1137 607 L 1137 617 L 1112 617 Z M 1112 607 " clip-rule="nonzero"/></clipPath><clipPath id="61907d1c9c"><path d="M 1133.820312 472.179688 L 1344.398438 549.28125 L 1278.648438 728.871094 L 1068.066406 651.773438 Z M 1133.820312 472.179688 " clip-rule="nonzero"/></clipPath><clipPath id="6f33e8943e"><path d="M 1133.820312 472.179688 L 1344.398438 549.28125 L 1278.648438 728.871094 L 1068.066406 651.773438 Z M 1133.820312 472.179688 " clip-rule="nonzero"/></clipPath><clipPath id="639a6a3f7b"><path d="M 1144 609 L 1163 609 L 1163 626 L 1144 626 Z M 1144 609 " clip-rule="nonzero"/></clipPath><clipPath id="ef3dff84c5"><path d="M 1133.820312 472.179688 L 1344.398438 549.28125 L 1278.648438 728.871094 L 1068.066406 651.773438 Z M 1133.820312 472.179688 " clip-rule="nonzero"/></clipPath><clipPath id="7d072b26cc"><path d="M 1133.820312 472.179688 L 1344.398438 549.28125 L 1278.648438 728.871094 L 1068.066406 651.773438 Z M 1133.820312 472.179688 " clip-rule="nonzero"/></clipPath><clipPath id="ee1fc24a9b"><path d="M 1238 643 L 1256 643 L 1256 660 L 1238 660 Z M 1238 643 " clip-rule="nonzero"/></clipPath><clipPath id="1560522786"><path d="M 1133.820312 472.179688 L 1344.398438 549.28125 L 1278.648438 728.871094 L 1068.066406 651.773438 Z M 1133.820312 472.179688 " clip-rule="nonzero"/></clipPath><clipPath id="f9a403f58b"><path d="M 1133.820312 472.179688 L 1344.398438 549.28125 L 1278.648438 728.871094 L 1068.066406 651.773438 Z M 1133.820312 472.179688 " clip-rule="nonzero"/></clipPath><clipPath id="fc5ba1bcce"><path d="M 1171 619 L 1226 619 L 1226 655 L 1171 655 Z M 1171 619 " clip-rule="nonzero"/></clipPath><clipPath id="ed7d5fb8f4"><path d="M 1133.820312 472.179688 L 1344.398438 549.28125 L 1278.648438 728.871094 L 1068.066406 651.773438 Z M 1133.820312 472.179688 " clip-rule="nonzero"/></clipPath><clipPath id="5f00014728"><path d="M 1133.820312 472.179688 L 1344.398438 549.28125 L 1278.648438 728.871094 L 1068.066406 651.773438 Z M 1133.820312 472.179688 " clip-rule="nonzero"/></clipPath><clipPath id="5f0ddd16b0"><path d="M 1194 617 L 1213 617 L 1213 630 L 1194 630 Z M 1194 617 " clip-rule="nonzero"/></clipPath><clipPath id="4308dab74e"><path d="M 1133.820312 472.179688 L 1344.398438 549.28125 L 1278.648438 728.871094 L 1068.066406 651.773438 Z M 1133.820312 472.179688 " clip-rule="nonzero"/></clipPath><clipPath id="a1d333878f"><path d="M 1133.820312 472.179688 L 1344.398438 549.28125 L 1278.648438 728.871094 L 1068.066406 651.773438 Z M 1133.820312 472.179688 " clip-rule="nonzero"/></clipPath><clipPath id="f3028b7f60"><path d="M 1219 526 L 1240 526 L 1240 576 L 1219 576 Z M 1219 526 " clip-rule="nonzero"/></clipPath><clipPath id="d873942620"><path d="M 1133.820312 472.179688 L 1344.398438 549.28125 L 1278.648438 728.871094 L 1068.066406 651.773438 Z M 1133.820312 472.179688 " clip-rule="nonzero"/></clipPath><clipPath id="2b27b036bc"><path d="M 1133.820312 472.179688 L 1344.398438 549.28125 L 1278.648438 728.871094 L 1068.066406 651.773438 Z M 1133.820312 472.179688 " clip-rule="nonzero"/></clipPath><clipPath id="6f7ee19492"><path d="M 1241 535 L 1261 535 L 1261 576 L 1241 576 Z M 1241 535 " clip-rule="nonzero"/></clipPath><clipPath id="bba65e7840"><path d="M 1133.820312 472.179688 L 1344.398438 549.28125 L 1278.648438 728.871094 L 1068.066406 651.773438 Z M 1133.820312 472.179688 " clip-rule="nonzero"/></clipPath><clipPath id="0c65e256a3"><path d="M 1133.820312 472.179688 L 1344.398438 549.28125 L 1278.648438 728.871094 L 1068.066406 651.773438 Z M 1133.820312 472.179688 " clip-rule="nonzero"/></clipPath><clipPath id="1b5446cfac"><path d="M 1197 522 L 1219 522 L 1219 563 L 1197 563 Z M 1197 522 " clip-rule="nonzero"/></clipPath><clipPath id="1bfd024b72"><path d="M 1133.820312 472.179688 L 1344.398438 549.28125 L 1278.648438 728.871094 L 1068.066406 651.773438 Z M 1133.820312 472.179688 " clip-rule="nonzero"/></clipPath><clipPath id="ece5e19fa3"><path d="M 1133.820312 472.179688 L 1344.398438 549.28125 L 1278.648438 728.871094 L 1068.066406 651.773438 Z M 1133.820312 472.179688 " clip-rule="nonzero"/></clipPath></defs><rect x="-144" width="1728" fill="#ffffff" y="-80.999999" height="971.999992" fill-opacity="1"/><rect x="-144" width="1728" fill="#e44145" y="-80.999999" height="971.999992" fill-opacity="1"/><path fill="#bf262d" d="M 210.285156 668.949219 C 236.46875 681.144531 267.316406 661.058594 267.316406 661.058594 C 267.316406 661.058594 270.542969 624.113281 247.226562 607.253906 C 270.902344 591.113281 268.75 554.167969 268.75 554.167969 C 268.75 554.167969 238.261719 533.007812 212.078125 544.484375 L 211.71875 544.484375 C 209.925781 515.429688 176.925781 498.574219 176.925781 498.574219 C 176.925781 498.574219 143.210938 514.355469 140.339844 542.691406 L 139.980469 542.691406 C 114.15625 530.496094 83.308594 550.941406 83.308594 550.941406 C 83.308594 550.941406 80.082031 587.886719 103.394531 604.742188 C 79.722656 620.886719 81.875 657.828125 81.875 657.828125 C 81.875 657.828125 112.363281 678.992188 138.546875 667.515625 L 138.90625 667.515625 C 141.058594 695.851562 174.054688 712.707031 174.054688 712.707031 C 173.699219 713.066406 207.414062 697.285156 210.285156 668.949219 Z M 210.285156 668.949219 " fill-opacity="1" fill-rule="nonzero"/><path fill="#f5ab31" d="M 196.652344 644.199219 C 212.4375 651.730469 231.445312 639.179688 231.445312 639.179688 C 231.445312 639.179688 233.238281 616.582031 219.25 606.539062 C 233.597656 596.851562 232.523438 574.253906 232.523438 574.253906 C 232.523438 574.253906 213.871094 561.34375 198.089844 568.515625 C 196.652344 551.300781 176.566406 540.898438 176.566406 540.898438 C 176.566406 540.898438 156.121094 550.582031 154.328125 567.800781 C 138.546875 560.265625 119.894531 572.460938 119.894531 572.460938 C 119.894531 572.460938 118.101562 595.058594 132.089844 605.101562 C 117.742188 614.789062 118.820312 637.382812 118.820312 637.382812 C 118.820312 637.382812 137.46875 650.296875 153.253906 643.125 C 154.6875 660.339844 174.773438 670.742188 174.773438 670.742188 C 174.414062 671.101562 194.859375 661.417969 196.652344 644.199219 Z M 196.652344 644.199219 " fill-opacity="1" fill-rule="nonzero"/><path fill="#fef1d6" d="M 183.621094 591.871094 C 184.515625 592.390625 185.355469 592.992188 186.132812 593.679688 C 186.910156 594.363281 187.613281 595.117188 188.242188 595.941406 C 188.871094 596.765625 189.414062 597.640625 189.867188 598.570312 C 190.324219 599.503906 190.6875 600.46875 190.953125 601.46875 C 191.21875 602.472656 191.382812 603.488281 191.449219 604.523438 C 191.515625 605.558594 191.476562 606.589844 191.339844 607.617188 C 191.203125 608.644531 190.964844 609.644531 190.632812 610.625 C 190.296875 611.609375 189.867188 612.546875 189.347656 613.441406 C 188.828125 614.339844 188.226562 615.175781 187.539062 615.953125 C 186.855469 616.730469 186.101562 617.433594 185.277344 618.0625 C 184.453125 618.691406 183.578125 619.234375 182.644531 619.691406 C 181.714844 620.148438 180.75 620.507812 179.75 620.773438 C 178.746094 621.039062 177.730469 621.203125 176.695312 621.269531 C 175.660156 621.335938 174.628906 621.300781 173.601562 621.164062 C 172.574219 621.023438 171.570312 620.789062 170.589844 620.453125 C 169.609375 620.117188 168.671875 619.691406 167.777344 619.167969 C 166.878906 618.648438 166.042969 618.046875 165.265625 617.363281 C 164.488281 616.675781 163.785156 615.921875 163.15625 615.097656 C 162.527344 614.273438 161.984375 613.398438 161.527344 612.46875 C 161.070312 611.539062 160.710938 610.570312 160.445312 609.570312 C 160.179688 608.566406 160.011719 607.550781 159.949219 606.515625 C 159.882812 605.480469 159.917969 604.449219 160.054688 603.425781 C 160.195312 602.398438 160.429688 601.394531 160.765625 600.414062 C 161.101562 599.433594 161.527344 598.492188 162.046875 597.597656 C 162.570312 596.703125 163.171875 595.863281 163.855469 595.085938 C 164.542969 594.308594 165.296875 593.605469 166.121094 592.976562 C 166.941406 592.347656 167.820312 591.804688 168.75 591.347656 C 169.679688 590.894531 170.648438 590.53125 171.648438 590.265625 C 172.648438 590 173.667969 589.835938 174.703125 589.769531 C 175.734375 589.703125 176.765625 589.738281 177.792969 589.878906 C 178.820312 590.015625 179.824219 590.25 180.804688 590.585938 C 181.785156 590.921875 182.722656 591.351562 183.621094 591.871094 Z M 183.621094 591.871094 " fill-opacity="1" fill-rule="nonzero"/><g clip-path="url(#d5172890ba)"><path fill="#fef1d6" d="M 471.78125 796.121094 C 485.835938 802.667969 502.398438 791.882812 502.398438 791.882812 C 502.398438 791.882812 504.132812 772.046875 491.613281 762.996094 C 504.324219 754.332031 503.167969 734.496094 503.167969 734.496094 C 503.167969 734.496094 486.800781 723.132812 472.742188 729.296875 L 472.550781 729.296875 C 471.585938 713.695312 453.871094 704.644531 453.871094 704.644531 C 453.871094 704.644531 435.765625 713.121094 434.226562 728.332031 L 434.035156 728.332031 C 420.167969 721.785156 403.605469 732.761719 403.605469 732.761719 C 403.605469 732.761719 401.875 752.597656 414.390625 761.648438 C 401.679688 770.316406 402.835938 790.152344 402.835938 790.152344 C 402.835938 790.152344 419.207031 801.511719 433.265625 795.351562 L 433.457031 795.351562 C 434.613281 810.5625 452.328125 819.617188 452.328125 819.617188 C 452.136719 819.808594 470.238281 811.335938 471.78125 796.121094 Z M 471.78125 796.121094 " fill-opacity="1" fill-rule="nonzero"/></g><path fill="#bf262d" d="M 464.460938 782.832031 C 472.933594 786.875 483.140625 780.136719 483.140625 780.136719 C 483.140625 780.136719 484.105469 768.003906 476.59375 762.613281 C 484.296875 757.414062 483.71875 745.28125 483.71875 745.28125 C 483.71875 745.28125 473.707031 738.347656 465.230469 742.199219 C 464.460938 732.953125 453.675781 727.371094 453.675781 727.371094 C 453.675781 727.371094 442.699219 732.570312 441.738281 741.8125 C 433.265625 737.769531 423.25 744.316406 423.25 744.316406 C 423.25 744.316406 422.285156 756.449219 429.796875 761.839844 C 422.09375 767.042969 422.671875 779.171875 422.671875 779.171875 C 422.671875 779.171875 432.6875 786.105469 441.160156 782.253906 C 441.929688 791.5 452.714844 797.082031 452.714844 797.082031 C 452.523438 797.277344 463.5 792.078125 464.460938 782.832031 Z M 464.460938 782.832031 " fill-opacity="1" fill-rule="nonzero"/><path fill="#f5ab31" d="M 457.464844 754.738281 C 457.945312 755.015625 458.394531 755.339844 458.8125 755.707031 C 459.230469 756.074219 459.605469 756.480469 459.945312 756.921875 C 460.28125 757.363281 460.574219 757.835938 460.820312 758.335938 C 461.0625 758.835938 461.257812 759.351562 461.398438 759.890625 C 461.542969 760.429688 461.632812 760.976562 461.667969 761.53125 C 461.703125 762.085938 461.683594 762.640625 461.609375 763.191406 C 461.535156 763.742188 461.40625 764.28125 461.226562 764.808594 C 461.046875 765.335938 460.820312 765.835938 460.539062 766.320312 C 460.261719 766.800781 459.9375 767.25 459.570312 767.667969 C 459.199219 768.085938 458.796875 768.460938 458.351562 768.800781 C 457.910156 769.136719 457.441406 769.429688 456.941406 769.671875 C 456.441406 769.917969 455.921875 770.113281 455.386719 770.253906 C 454.847656 770.398438 454.300781 770.488281 453.746094 770.523438 C 453.191406 770.558594 452.636719 770.539062 452.085938 770.464844 C 451.535156 770.390625 450.996094 770.261719 450.46875 770.082031 C 449.941406 769.902344 449.4375 769.671875 448.957031 769.394531 C 448.476562 769.113281 448.027344 768.792969 447.609375 768.421875 C 447.191406 768.054688 446.8125 767.652344 446.476562 767.207031 C 446.136719 766.765625 445.847656 766.296875 445.601562 765.796875 C 445.359375 765.296875 445.164062 764.777344 445.019531 764.238281 C 444.878906 763.703125 444.789062 763.15625 444.753906 762.601562 C 444.71875 762.046875 444.738281 761.492188 444.8125 760.941406 C 444.886719 760.390625 445.011719 759.851562 445.191406 759.324219 C 445.375 758.796875 445.601562 758.292969 445.882812 757.8125 C 446.160156 757.332031 446.484375 756.882812 446.851562 756.464844 C 447.21875 756.046875 447.625 755.667969 448.066406 755.332031 C 448.511719 754.992188 448.980469 754.703125 449.480469 754.457031 C 449.980469 754.210938 450.5 754.019531 451.035156 753.875 C 451.574219 753.734375 452.121094 753.644531 452.675781 753.609375 C 453.230469 753.574219 453.785156 753.59375 454.335938 753.667969 C 454.886719 753.742188 455.425781 753.867188 455.953125 754.046875 C 456.480469 754.226562 456.984375 754.457031 457.464844 754.738281 Z M 457.464844 754.738281 " fill-opacity="1" fill-rule="nonzero"/><g clip-path="url(#1c828ee22a)"><path fill="#fef1d6" d="M 1343.007812 280.785156 C 1355.746094 286.71875 1370.75 276.949219 1370.75 276.949219 C 1370.75 276.949219 1372.320312 258.976562 1360.980469 250.777344 C 1372.492188 242.929688 1371.445312 224.957031 1371.445312 224.957031 C 1371.445312 224.957031 1356.617188 214.664062 1343.882812 220.246094 L 1343.707031 220.246094 C 1342.835938 206.117188 1326.785156 197.917969 1326.785156 197.917969 C 1326.785156 197.917969 1310.386719 205.59375 1308.988281 219.375 L 1308.816406 219.375 C 1296.253906 213.445312 1281.25 223.386719 1281.25 223.386719 C 1281.25 223.386719 1279.679688 241.359375 1291.019531 249.558594 C 1279.503906 257.410156 1280.550781 275.378906 1280.550781 275.378906 C 1280.550781 275.378906 1295.382812 285.671875 1308.117188 280.089844 L 1308.292969 280.089844 C 1309.339844 293.871094 1325.390625 302.070312 1325.390625 302.070312 C 1325.214844 302.246094 1341.613281 294.570312 1343.007812 280.785156 Z M 1343.007812 280.785156 " fill-opacity="1" fill-rule="nonzero"/></g><path fill="#bf262d" d="M 1336.378906 268.75 C 1344.054688 272.410156 1353.300781 266.304688 1353.300781 266.304688 C 1353.300781 266.304688 1354.175781 255.316406 1347.371094 250.429688 C 1354.347656 245.71875 1353.824219 234.726562 1353.824219 234.726562 C 1353.824219 234.726562 1344.753906 228.449219 1337.078125 231.9375 C 1336.378906 223.5625 1326.609375 218.503906 1326.609375 218.503906 C 1326.609375 218.503906 1316.664062 223.214844 1315.792969 231.585938 C 1308.117188 227.925781 1299.046875 233.855469 1299.046875 233.855469 C 1299.046875 233.855469 1298.171875 244.847656 1304.976562 249.730469 C 1298 254.441406 1298.523438 265.433594 1298.523438 265.433594 C 1298.523438 265.433594 1307.59375 271.714844 1315.269531 268.226562 C 1315.96875 276.597656 1325.738281 281.660156 1325.738281 281.660156 C 1325.5625 281.832031 1335.507812 277.121094 1336.378906 268.75 Z M 1336.378906 268.75 " fill-opacity="1" fill-rule="nonzero"/><path fill="#f5ab31" d="M 1330.039062 243.296875 C 1330.476562 243.546875 1330.882812 243.84375 1331.261719 244.175781 C 1331.640625 244.507812 1331.980469 244.875 1332.289062 245.277344 C 1332.59375 245.675781 1332.859375 246.101562 1333.078125 246.554688 C 1333.300781 247.007812 1333.476562 247.476562 1333.605469 247.964844 C 1333.734375 248.453125 1333.816406 248.945312 1333.847656 249.449219 C 1333.878906 249.953125 1333.863281 250.453125 1333.796875 250.953125 C 1333.730469 251.453125 1333.613281 251.941406 1333.449219 252.417969 C 1333.289062 252.894531 1333.078125 253.351562 1332.828125 253.789062 C 1332.574219 254.222656 1332.28125 254.632812 1331.945312 255.007812 C 1331.613281 255.386719 1331.246094 255.730469 1330.847656 256.035156 C 1330.445312 256.339844 1330.019531 256.605469 1329.566406 256.828125 C 1329.113281 257.050781 1328.644531 257.226562 1328.15625 257.355469 C 1327.671875 257.484375 1327.175781 257.5625 1326.671875 257.597656 C 1326.167969 257.628906 1325.667969 257.609375 1325.167969 257.542969 C 1324.667969 257.476562 1324.179688 257.359375 1323.703125 257.199219 C 1323.226562 257.035156 1322.769531 256.828125 1322.332031 256.574219 C 1321.898438 256.320312 1321.492188 256.027344 1321.113281 255.695312 C 1320.734375 255.363281 1320.390625 254.996094 1320.085938 254.59375 C 1319.78125 254.191406 1319.515625 253.765625 1319.292969 253.3125 C 1319.074219 252.863281 1318.898438 252.390625 1318.769531 251.90625 C 1318.640625 251.417969 1318.558594 250.921875 1318.527344 250.417969 C 1318.496094 249.917969 1318.511719 249.414062 1318.578125 248.914062 C 1318.644531 248.414062 1318.761719 247.925781 1318.925781 247.449219 C 1319.085938 246.972656 1319.296875 246.515625 1319.546875 246.082031 C 1319.800781 245.644531 1320.09375 245.238281 1320.425781 244.859375 C 1320.761719 244.480469 1321.128906 244.140625 1321.527344 243.835938 C 1321.929688 243.527344 1322.355469 243.265625 1322.808594 243.042969 C 1323.261719 242.820312 1323.730469 242.644531 1324.21875 242.515625 C 1324.703125 242.386719 1325.199219 242.304688 1325.703125 242.273438 C 1326.207031 242.242188 1326.707031 242.257812 1327.207031 242.328125 C 1327.707031 242.394531 1328.195312 242.507812 1328.671875 242.671875 C 1329.148438 242.835938 1329.605469 243.042969 1330.039062 243.296875 Z M 1330.039062 243.296875 " fill-opacity="1" fill-rule="nonzero"/><path fill="#f5ab31" d="M 878.542969 745.375 C 897.5 754.203125 919.832031 739.664062 919.832031 739.664062 C 919.832031 739.664062 922.167969 712.917969 905.289062 700.714844 C 922.425781 689.03125 920.871094 662.285156 920.871094 662.285156 C 920.871094 662.285156 898.796875 646.964844 879.84375 655.273438 L 879.582031 655.273438 C 878.285156 634.242188 854.398438 622.039062 854.398438 622.039062 C 854.398438 622.039062 829.988281 633.460938 827.910156 653.976562 L 827.652344 653.976562 C 808.957031 645.148438 786.625 659.949219 786.625 659.949219 C 786.625 659.949219 784.289062 686.691406 801.167969 698.898438 C 784.027344 710.582031 785.585938 737.328125 785.585938 737.328125 C 785.585938 737.328125 807.65625 752.644531 826.613281 744.335938 L 826.871094 744.335938 C 828.429688 764.851562 852.320312 777.054688 852.320312 777.054688 C 852.058594 777.3125 876.46875 765.890625 878.542969 745.375 Z M 878.542969 745.375 " fill-opacity="1" fill-rule="nonzero"/><path fill="#bf262d" d="M 868.679688 727.460938 C 880.101562 732.910156 893.863281 723.824219 893.863281 723.824219 C 893.863281 723.824219 895.164062 707.464844 885.035156 700.195312 C 895.421875 693.183594 894.644531 676.824219 894.644531 676.824219 C 894.644531 676.824219 881.140625 667.476562 869.714844 672.671875 C 868.679688 660.207031 854.136719 652.675781 854.136719 652.675781 C 854.136719 652.675781 839.335938 659.6875 838.039062 672.152344 C 826.613281 666.699219 813.109375 675.527344 813.109375 675.527344 C 813.109375 675.527344 811.8125 691.886719 821.9375 699.15625 C 811.550781 706.167969 812.332031 722.527344 812.332031 722.527344 C 812.332031 722.527344 825.832031 731.875 837.257812 726.679688 C 838.296875 739.144531 852.839844 746.675781 852.839844 746.675781 C 852.578125 746.933594 867.378906 739.921875 868.679688 727.460938 Z M 868.679688 727.460938 " fill-opacity="1" fill-rule="nonzero"/><path fill="#fef1d6" d="M 859.242188 689.578125 C 859.890625 689.953125 860.496094 690.390625 861.058594 690.886719 C 861.625 691.382812 862.132812 691.925781 862.585938 692.523438 C 863.042969 693.121094 863.4375 693.753906 863.765625 694.429688 C 864.097656 695.101562 864.359375 695.800781 864.550781 696.527344 C 864.742188 697.25 864.863281 697.988281 864.910156 698.738281 C 864.957031 699.484375 864.929688 700.230469 864.832031 700.976562 C 864.730469 701.71875 864.5625 702.445312 864.316406 703.15625 C 864.074219 703.863281 863.765625 704.542969 863.390625 705.191406 C 863.011719 705.84375 862.578125 706.449219 862.082031 707.011719 C 861.585938 707.574219 861.039062 708.082031 860.441406 708.539062 C 859.847656 708.992188 859.210938 709.386719 858.539062 709.714844 C 857.863281 710.046875 857.164062 710.308594 856.441406 710.5 C 855.714844 710.691406 854.976562 710.8125 854.230469 710.859375 C 853.480469 710.90625 852.734375 710.882812 851.992188 710.78125 C 851.246094 710.683594 850.519531 710.511719 849.8125 710.269531 C 849.101562 710.027344 848.421875 709.714844 847.773438 709.339844 C 847.125 708.964844 846.519531 708.527344 845.957031 708.03125 C 845.390625 707.535156 844.882812 706.988281 844.429688 706.394531 C 843.972656 705.796875 843.578125 705.160156 843.25 704.488281 C 842.917969 703.8125 842.65625 703.113281 842.464844 702.390625 C 842.273438 701.664062 842.152344 700.929688 842.105469 700.179688 C 842.058594 699.429688 842.085938 698.683594 842.183594 697.941406 C 842.285156 697.199219 842.453125 696.472656 842.699219 695.761719 C 842.941406 695.050781 843.25 694.371094 843.625 693.722656 C 844.003906 693.074219 844.4375 692.46875 844.933594 691.90625 C 845.429688 691.34375 845.976562 690.832031 846.574219 690.378906 C 847.167969 689.921875 847.804688 689.53125 848.476562 689.199219 C 849.152344 688.871094 849.851562 688.609375 850.574219 688.414062 C 851.300781 688.222656 852.039062 688.101562 852.785156 688.054688 C 853.535156 688.007812 854.28125 688.035156 855.023438 688.132812 C 855.769531 688.234375 856.496094 688.40625 857.203125 688.648438 C 857.914062 688.890625 858.59375 689.199219 859.242188 689.578125 Z M 859.242188 689.578125 " fill-opacity="1" fill-rule="nonzero"/><g clip-path="url(#8476963369)"><g clip-path="url(#df826821d6)"><g clip-path="url(#f86915d319)"><path fill="#fff3e7" d="M 310.90625 194.546875 C 314.03125 203.628906 315.464844 212.4375 315.371094 220.867188 C 315.0625 259.511719 283.082031 290.304688 238.035156 305.792969 C 193.195312 321.214844 149.257812 316.722656 125.15625 286.828125 C 119.753906 280.148438 115.351562 272.195312 112.15625 262.898438 C 105.429688 243.339844 102.664062 223.488281 108.617188 202.585938 C 99.414062 187.175781 83.390625 157.363281 90.175781 146.375 C 97.902344 133.820312 135.882812 148.589844 148.390625 153.914062 L 149.929688 152.886719 C 157.542969 147.882812 166.941406 142.382812 178.46875 137.894531 C 184.886719 135.382812 191.699219 133.847656 198.011719 132.824219 C 198.078125 132.824219 198.144531 132.816406 198.207031 132.800781 C 198.6875 132.734375 199.140625 132.648438 199.605469 132.609375 C 202.398438 132.242188 205.140625 131.898438 207.617188 131.632812 C 208.042969 131.578125 208.429688 131.542969 208.824219 131.5 C 209.285156 131.441406 209.75 131.394531 210.195312 131.363281 C 210.378906 131.324219 210.5625 131.308594 210.75 131.316406 C 211.386719 131.242188 212 131.175781 212.597656 131.121094 L 213.460938 131.042969 C 220.40625 118.605469 240.785156 84.851562 254.367188 89.910156 C 265.980469 94.238281 271.71875 125.175781 274.109375 143.433594 C 292.222656 155.589844 301.878906 170.058594 309.417969 190.382812 C 309.9375 191.730469 310.421875 193.140625 310.90625 194.546875 Z M 310.90625 194.546875 " fill-opacity="1" fill-rule="nonzero"/></g></g></g><g clip-path="url(#bfe9dd990e)"><g clip-path="url(#45af8ca5c6)"><g clip-path="url(#7f5480e32c)"><path fill="#f5ab31" d="M 310.90625 194.546875 C 314.03125 203.628906 315.464844 212.4375 315.371094 220.867188 C 246.417969 236.683594 222.984375 209.289062 210.339844 194.550781 C 208.636719 192.582031 204.167969 187.277344 204.15625 191.621094 C 204.140625 195.964844 206.28125 201.316406 203.984375 200.9375 C 201.6875 200.554688 195.398438 185.597656 193.578125 187.726562 C 191.757812 189.851562 197.535156 203.488281 195.261719 204.765625 C 192.984375 206.046875 190.734375 199.363281 187.324219 196.601562 C 183.910156 193.839844 184.402344 202.636719 184.339844 203.253906 C 179.71875 252.445312 145.621094 276.621094 125.15625 286.828125 C 119.753906 280.148438 115.351562 272.195312 112.15625 262.898438 C 105.429688 243.339844 102.664062 223.488281 108.617188 202.585938 C 99.414062 187.175781 83.390625 157.363281 90.175781 146.375 C 97.902344 133.820312 135.882812 148.589844 148.390625 153.914062 L 149.929688 152.886719 C 157.542969 147.882812 166.941406 142.382812 178.46875 137.894531 C 184.886719 135.382812 191.699219 133.847656 198.011719 132.824219 C 198.078125 132.824219 198.144531 132.816406 198.207031 132.800781 C 198.6875 132.734375 199.140625 132.648438 199.605469 132.609375 C 202.425781 132.1875 205.125 131.851562 207.617188 131.632812 C 208.042969 131.578125 208.429688 131.542969 208.824219 131.5 C 209.285156 131.441406 209.75 131.394531 210.195312 131.363281 C 210.378906 131.324219 210.5625 131.308594 210.75 131.316406 C 211.386719 131.242188 212 131.175781 212.597656 131.121094 L 213.460938 131.042969 C 220.40625 118.605469 240.785156 84.851562 254.367188 89.910156 C 265.980469 94.238281 271.71875 125.175781 274.109375 143.433594 C 292.222656 155.589844 301.878906 170.058594 309.417969 190.382812 C 309.9375 191.730469 310.421875 193.140625 310.90625 194.546875 Z M 310.90625 194.546875 " fill-opacity="1" fill-rule="nonzero"/></g></g></g><g clip-path="url(#606c23741a)"><g clip-path="url(#353d4e62b7)"><g clip-path="url(#d517ceb2b3)"><path fill="#62442f" d="M 193.144531 247.777344 C 193.292969 248.199219 193.398438 248.632812 193.460938 249.078125 C 193.523438 249.519531 193.546875 249.964844 193.527344 250.410156 C 193.503906 250.855469 193.445312 251.292969 193.339844 251.722656 C 193.234375 252.152344 193.089844 252.566406 192.90625 252.964844 C 192.722656 253.363281 192.503906 253.738281 192.25 254.089844 C 191.992188 254.441406 191.703125 254.765625 191.386719 255.054688 C 191.066406 255.347656 190.722656 255.601562 190.351562 255.820312 C 189.984375 256.042969 189.597656 256.21875 189.191406 256.359375 C 188.785156 256.5 188.367188 256.597656 187.941406 256.652344 C 187.515625 256.703125 187.089844 256.714844 186.65625 256.679688 C 186.226562 256.648438 185.800781 256.570312 185.382812 256.453125 C 184.964844 256.332031 184.5625 256.171875 184.171875 255.96875 C 183.78125 255.769531 183.414062 255.53125 183.066406 255.253906 C 182.71875 254.980469 182.402344 254.671875 182.113281 254.335938 C 181.824219 253.996094 181.566406 253.632812 181.34375 253.246094 C 181.121094 252.855469 180.9375 252.449219 180.792969 252.023438 C 180.644531 251.601562 180.542969 251.167969 180.476562 250.722656 C 180.414062 250.28125 180.390625 249.835938 180.414062 249.390625 C 180.433594 248.945312 180.496094 248.507812 180.597656 248.078125 C 180.703125 247.648438 180.847656 247.234375 181.03125 246.835938 C 181.214844 246.4375 181.433594 246.0625 181.691406 245.710938 C 181.945312 245.359375 182.234375 245.039062 182.554688 244.746094 C 182.871094 244.453125 183.214844 244.199219 183.585938 243.980469 C 183.953125 243.761719 184.34375 243.582031 184.746094 243.441406 C 185.152344 243.300781 185.570312 243.207031 185.996094 243.152344 C 186.421875 243.097656 186.851562 243.085938 187.28125 243.121094 C 187.710938 243.152344 188.136719 243.230469 188.554688 243.351562 C 188.972656 243.46875 189.375 243.628906 189.765625 243.832031 C 190.15625 244.03125 190.523438 244.269531 190.871094 244.546875 C 191.21875 244.820312 191.535156 245.128906 191.824219 245.464844 C 192.117188 245.804688 192.371094 246.167969 192.59375 246.558594 C 192.816406 246.945312 193 247.351562 193.144531 247.777344 Z M 193.144531 247.777344 " fill-opacity="1" fill-rule="nonzero"/></g></g></g><g clip-path="url(#d18b9b6256)"><g clip-path="url(#8247a0d831)"><g clip-path="url(#39bd8cf7ff)"><path fill="#62442f" d="M 245.203125 229.875 C 245.347656 230.296875 245.453125 230.730469 245.519531 231.175781 C 245.582031 231.617188 245.605469 232.0625 245.582031 232.507812 C 245.5625 232.953125 245.5 233.390625 245.394531 233.820312 C 245.292969 234.25 245.148438 234.664062 244.964844 235.0625 C 244.78125 235.460938 244.5625 235.835938 244.304688 236.1875 C 244.046875 236.539062 243.761719 236.863281 243.441406 237.152344 C 243.125 237.445312 242.777344 237.699219 242.410156 237.917969 C 242.039062 238.140625 241.652344 238.316406 241.246094 238.457031 C 240.84375 238.597656 240.425781 238.695312 240 238.75 C 239.574219 238.800781 239.144531 238.8125 238.714844 238.777344 C 238.285156 238.746094 237.859375 238.667969 237.441406 238.550781 C 237.023438 238.429688 236.617188 238.269531 236.230469 238.066406 C 235.839844 237.867188 235.472656 237.628906 235.125 237.351562 C 234.777344 237.078125 234.460938 236.769531 234.167969 236.433594 C 233.878906 236.09375 233.625 235.730469 233.402344 235.34375 C 233.179688 234.953125 232.996094 234.546875 232.847656 234.121094 C 232.703125 233.699219 232.597656 233.265625 232.535156 232.820312 C 232.46875 232.378906 232.449219 231.933594 232.46875 231.488281 C 232.488281 231.042969 232.550781 230.605469 232.65625 230.175781 C 232.761719 229.746094 232.902344 229.332031 233.085938 228.933594 C 233.269531 228.535156 233.492188 228.160156 233.746094 227.808594 C 234.003906 227.457031 234.289062 227.136719 234.609375 226.84375 C 234.929688 226.550781 235.273438 226.296875 235.640625 226.078125 C 236.011719 225.859375 236.398438 225.679688 236.804688 225.539062 C 237.210938 225.398438 237.625 225.304688 238.050781 225.25 C 238.480469 225.195312 238.90625 225.183594 239.335938 225.21875 C 239.769531 225.25 240.191406 225.328125 240.609375 225.449219 C 241.027344 225.566406 241.433594 225.726562 241.824219 225.929688 C 242.214844 226.128906 242.582031 226.367188 242.929688 226.644531 C 243.273438 226.917969 243.59375 227.226562 243.882812 227.5625 C 244.171875 227.902344 244.429688 228.265625 244.652344 228.65625 C 244.875 229.042969 245.058594 229.449219 245.203125 229.875 Z M 245.203125 229.875 " fill-opacity="1" fill-rule="nonzero"/></g></g></g><g clip-path="url(#bbec1a94bb)"><g clip-path="url(#985d3e0201)"><g clip-path="url(#6526c4c022)"><path fill="#62442f" d="M 210.414062 263.867188 C 210.214844 263.925781 210.007812 263.945312 209.796875 263.921875 C 209.589844 263.902344 209.390625 263.84375 209.207031 263.746094 C 209.019531 263.648438 208.855469 263.523438 208.71875 263.363281 C 208.582031 263.203125 208.480469 263.023438 208.410156 262.824219 C 208.34375 262.625 208.3125 262.421875 208.324219 262.210938 C 208.335938 262.003906 208.382812 261.800781 208.46875 261.609375 C 208.558594 261.417969 208.675781 261.25 208.828125 261.105469 C 208.980469 260.960938 209.15625 260.847656 209.351562 260.769531 C 214.871094 258.871094 216.953125 257.117188 215.554688 251.152344 C 215.503906 250.945312 215.492188 250.738281 215.523438 250.53125 C 215.550781 250.320312 215.621094 250.125 215.730469 249.941406 C 215.839844 249.761719 215.976562 249.609375 216.148438 249.480469 C 216.320312 249.355469 216.507812 249.265625 216.710938 249.214844 C 216.921875 249.175781 217.128906 249.171875 217.339844 249.214844 C 217.546875 249.253906 217.742188 249.332031 217.917969 249.449219 C 218.097656 249.566406 218.246094 249.714844 218.367188 249.890625 C 218.484375 250.066406 218.566406 250.257812 218.613281 250.464844 C 220.523438 258.617188 216.894531 261.640625 210.414062 263.867188 Z M 210.414062 263.867188 " fill-opacity="1" fill-rule="nonzero"/></g></g></g><g clip-path="url(#45b00f123d)"><g clip-path="url(#1cce5c18e8)"><g clip-path="url(#f4d2770bfd)"><path fill="#62442f" d="M 230.375 257.003906 C 223.894531 259.230469 219.175781 259.078125 215.667969 251.476562 C 215.574219 251.285156 215.523438 251.085938 215.511719 250.875 C 215.5 250.664062 215.527344 250.457031 215.597656 250.257812 C 215.664062 250.058594 215.769531 249.878906 215.90625 249.71875 C 216.046875 249.558594 216.210938 249.433594 216.398438 249.335938 C 216.589844 249.25 216.792969 249.203125 217.007812 249.195312 C 217.21875 249.1875 217.421875 249.222656 217.621094 249.300781 C 217.820312 249.378906 217.996094 249.488281 218.148438 249.636719 C 218.300781 249.785156 218.417969 249.957031 218.5 250.152344 C 221.066406 255.714844 223.789062 255.820312 229.308594 253.921875 C 229.511719 253.863281 229.714844 253.84375 229.925781 253.863281 C 230.136719 253.886719 230.332031 253.945312 230.519531 254.042969 C 230.707031 254.136719 230.867188 254.265625 231.003906 254.425781 C 231.140625 254.585938 231.246094 254.765625 231.3125 254.960938 C 231.382812 255.160156 231.410156 255.367188 231.402344 255.574219 C 231.390625 255.785156 231.339844 255.988281 231.253906 256.175781 C 231.167969 256.367188 231.046875 256.535156 230.894531 256.683594 C 230.742188 256.828125 230.570312 256.9375 230.375 257.015625 Z M 230.375 257.003906 " fill-opacity="1" fill-rule="nonzero"/></g></g></g><g clip-path="url(#52ae7d4556)"><g clip-path="url(#082583f02d)"><g clip-path="url(#04775316e9)"><path fill="#fff3e7" d="M 226.300781 129.632812 C 226.300781 129.632812 240.824219 99.003906 250.609375 102.269531 C 260.390625 105.539062 264.136719 139.796875 264.136719 139.796875 C 258.257812 136.789062 252.132812 134.429688 245.757812 132.714844 C 239.378906 131.003906 232.894531 129.976562 226.300781 129.632812 Z M 226.300781 129.632812 " fill-opacity="1" fill-rule="nonzero"/></g></g></g><g clip-path="url(#d9c98354c8)"><g clip-path="url(#b896a00979)"><g clip-path="url(#45afd8e014)"><path fill="#fff3e7" d="M 137.453125 161.417969 C 137.453125 161.417969 107.261719 146.359375 101.519531 154.867188 C 95.777344 163.375 113.554688 192.101562 113.554688 192.101562 C 118.601562 180.1875 127.449219 170.90625 137.453125 161.417969 Z M 137.453125 161.417969 " fill-opacity="1" fill-rule="nonzero"/></g></g></g><g clip-path="url(#e8684b00ad)"><g clip-path="url(#168dce9c84)"><g clip-path="url(#96331f1e50)"><path fill="#62442f" d="M 274.519531 234.996094 C 274.148438 235.113281 273.785156 235.101562 273.425781 234.953125 C 273.066406 234.804688 272.796875 234.558594 272.621094 234.210938 C 272.515625 234.027344 272.449219 233.828125 272.421875 233.621094 C 272.394531 233.410156 272.40625 233.199219 272.460938 232.996094 C 272.515625 232.789062 272.605469 232.601562 272.734375 232.433594 C 272.859375 232.261719 273.015625 232.125 273.195312 232.011719 L 290.25 222.515625 C 290.4375 222.417969 290.632812 222.359375 290.84375 222.339844 C 291.054688 222.320312 291.261719 222.339844 291.464844 222.40625 C 291.664062 222.46875 291.847656 222.566406 292.007812 222.707031 C 292.167969 222.84375 292.296875 223.003906 292.394531 223.195312 C 292.496094 223.378906 292.5625 223.574219 292.589844 223.785156 C 292.617188 223.996094 292.605469 224.203125 292.550781 224.410156 C 292.496094 224.613281 292.40625 224.800781 292.277344 224.96875 C 292.152344 225.140625 291.996094 225.277344 291.816406 225.386719 L 274.761719 234.886719 C 274.683594 234.929688 274.605469 234.964844 274.519531 234.996094 Z M 274.519531 234.996094 " fill-opacity="1" fill-rule="nonzero"/></g></g></g><g clip-path="url(#c6714d5f69)"><g clip-path="url(#a722079095)"><g clip-path="url(#578de19d37)"><path fill="#62442f" d="M 296.554688 238.390625 L 296.425781 238.4375 L 277.484375 243.078125 C 277.277344 243.125 277.070312 243.128906 276.859375 243.089844 C 276.648438 243.054688 276.453125 242.980469 276.273438 242.867188 C 276.09375 242.753906 275.941406 242.609375 275.820312 242.433594 C 275.695312 242.261719 275.609375 242.070312 275.5625 241.863281 C 275.503906 241.660156 275.492188 241.457031 275.515625 241.246094 C 275.542969 241.039062 275.605469 240.839844 275.710938 240.65625 C 275.8125 240.476562 275.949219 240.320312 276.113281 240.1875 C 276.28125 240.058594 276.464844 239.964844 276.667969 239.910156 L 295.609375 235.269531 C 295.816406 235.222656 296.023438 235.21875 296.234375 235.253906 C 296.445312 235.289062 296.640625 235.367188 296.820312 235.480469 C 297 235.59375 297.152344 235.738281 297.273438 235.910156 C 297.398438 236.085938 297.484375 236.273438 297.53125 236.480469 C 297.585938 236.671875 297.601562 236.867188 297.582031 237.066406 C 297.558594 237.261719 297.503906 237.449219 297.414062 237.628906 C 297.324219 237.804688 297.203125 237.957031 297.054688 238.089844 C 296.90625 238.222656 296.738281 238.324219 296.554688 238.390625 Z M 296.554688 238.390625 " fill-opacity="1" fill-rule="nonzero"/></g></g></g><g clip-path="url(#eb3fafcab8)"><g clip-path="url(#9670a13240)"><g clip-path="url(#7ac6f5dc32)"><path fill="#62442f" d="M 160.96875 274.042969 C 160.882812 274.074219 160.796875 274.097656 160.707031 274.113281 L 141.417969 277.109375 C 141.210938 277.132812 141.003906 277.121094 140.796875 277.0625 C 140.59375 277.007812 140.40625 276.914062 140.238281 276.789062 C 140.070312 276.660156 139.929688 276.503906 139.824219 276.320312 C 139.714844 276.140625 139.644531 275.945312 139.613281 275.734375 C 139.574219 275.527344 139.574219 275.320312 139.617188 275.113281 C 139.660156 274.90625 139.742188 274.714844 139.863281 274.542969 C 139.984375 274.367188 140.132812 274.222656 140.308594 274.109375 C 140.488281 273.996094 140.679688 273.917969 140.886719 273.882812 L 160.164062 270.898438 C 160.375 270.875 160.582031 270.890625 160.785156 270.945312 C 160.992188 271 161.179688 271.09375 161.347656 271.222656 C 161.515625 271.351562 161.652344 271.507812 161.761719 271.6875 C 161.871094 271.871094 161.9375 272.066406 161.96875 272.277344 C 162.039062 272.65625 161.980469 273.007812 161.789062 273.34375 C 161.601562 273.675781 161.328125 273.910156 160.96875 274.042969 Z M 160.96875 274.042969 " fill-opacity="1" fill-rule="nonzero"/></g></g></g><g clip-path="url(#e054d0203d)"><g clip-path="url(#65056d049f)"><g clip-path="url(#a51818923a)"><path fill="#62442f" d="M 145.675781 290.277344 C 145.488281 290.339844 145.292969 290.363281 145.09375 290.351562 C 144.894531 290.339844 144.703125 290.292969 144.523438 290.207031 C 144.339844 290.125 144.179688 290.011719 144.042969 289.867188 C 143.90625 289.722656 143.796875 289.558594 143.722656 289.375 C 143.632812 289.179688 143.582031 288.976562 143.570312 288.765625 C 143.5625 288.550781 143.59375 288.34375 143.664062 288.144531 C 143.738281 287.941406 143.84375 287.765625 143.988281 287.605469 C 144.132812 287.449219 144.300781 287.324219 144.492188 287.230469 L 162.28125 279.242188 C 162.476562 279.164062 162.679688 279.125 162.886719 279.125 C 163.097656 279.125 163.300781 279.167969 163.496094 279.246094 C 163.6875 279.328125 163.859375 279.441406 164.007812 279.589844 C 164.160156 279.738281 164.273438 279.910156 164.355469 280.101562 C 164.445312 280.296875 164.496094 280.5 164.503906 280.710938 C 164.511719 280.925781 164.480469 281.132812 164.410156 281.332031 C 164.335938 281.53125 164.230469 281.710938 164.085938 281.871094 C 163.945312 282.027344 163.777344 282.152344 163.585938 282.246094 L 145.796875 290.234375 Z M 145.675781 290.277344 " fill-opacity="1" fill-rule="nonzero"/></g></g></g><g clip-path="url(#da499ba26f)"><g clip-path="url(#35bac7bfa4)"><g clip-path="url(#eead71d730)"><path fill="#d32027" d="M 223.203125 243.097656 C 224 245.414062 221.539062 249.667969 217.207031 251.15625 C 212.875 252.648438 208.3125 250.8125 207.515625 248.492188 C 206.71875 246.175781 209.585938 243.082031 213.917969 241.59375 C 218.25 240.105469 222.40625 240.777344 223.203125 243.097656 Z M 223.203125 243.097656 " fill-opacity="1" fill-rule="nonzero"/></g></g></g><g clip-path="url(#aca9528d7a)"><g clip-path="url(#ae69cceb07)"><g clip-path="url(#83db6e67db)"><path fill="#d32027" d="M 181.40625 264.925781 C 180.703125 264.539062 179.953125 264.363281 179.152344 264.410156 C 178.351562 264.453125 177.625 264.707031 176.96875 265.171875 C 176.128906 265.800781 175.574219 266.625 175.3125 267.644531 C 174.480469 267.003906 173.535156 266.695312 172.484375 266.714844 C 171.683594 266.75 170.953125 266.996094 170.296875 267.453125 C 169.636719 267.914062 169.152344 268.511719 168.835938 269.25 C 168.585938 269.863281 168.464844 270.503906 168.472656 271.167969 C 168.480469 271.832031 168.617188 272.46875 168.882812 273.078125 C 169.601562 274.765625 170.921875 276.164062 172.308594 277.300781 C 173.53125 278.269531 174.957031 279.28125 176.488281 279.726562 C 176.867188 279.835938 177.25 279.917969 177.640625 279.972656 C 178.273438 280.050781 178.898438 280.015625 179.515625 279.867188 C 180.097656 279.613281 180.613281 279.265625 181.066406 278.824219 C 181.339844 278.542969 181.59375 278.242188 181.824219 277.921875 C 182.753906 276.628906 183.277344 274.945312 183.632812 273.4375 C 184.019531 271.691406 184.203125 269.773438 183.730469 268.003906 C 183.570312 267.355469 183.285156 266.761719 182.882812 266.230469 C 182.476562 265.695312 181.988281 265.261719 181.40625 264.925781 Z M 181.40625 264.925781 " fill-opacity="1" fill-rule="nonzero"/></g></g></g><g clip-path="url(#c3e3a2ea17)"><g clip-path="url(#c21e325c12)"><g clip-path="url(#39f8a3c9a4)"><path fill="#d32027" d="M 266.472656 235.671875 C 265.765625 235.28125 265.011719 235.109375 264.207031 235.160156 C 263.402344 235.207031 262.671875 235.464844 262.019531 235.933594 C 261.179688 236.5625 260.628906 237.386719 260.367188 238.402344 C 259.53125 237.765625 258.589844 237.457031 257.539062 237.472656 C 256.742188 237.511719 256.011719 237.757812 255.355469 238.214844 C 254.699219 238.667969 254.214844 239.261719 253.898438 239.996094 C 253.648438 240.613281 253.527344 241.25 253.535156 241.914062 C 253.546875 242.578125 253.683594 243.214844 253.949219 243.824219 C 254.667969 245.511719 255.988281 246.910156 257.375 248.046875 C 258.574219 249.019531 260.023438 250.027344 261.550781 250.472656 C 261.929688 250.582031 262.316406 250.664062 262.707031 250.71875 C 263.339844 250.859375 263.964844 250.828125 264.582031 250.613281 C 265.195312 250.402344 265.707031 250.046875 266.121094 249.542969 C 266.398438 249.261719 266.652344 248.960938 266.882812 248.640625 C 267.8125 247.347656 268.335938 245.664062 268.6875 244.15625 C 269.078125 242.410156 269.257812 240.492188 268.785156 238.722656 C 268.621094 238.078125 268.339844 237.492188 267.9375 236.964844 C 267.535156 236.433594 267.046875 236.003906 266.472656 235.671875 Z M 266.472656 235.671875 " fill-opacity="1" fill-rule="nonzero"/></g></g></g><g clip-path="url(#1594b755c3)"><g clip-path="url(#f280973c87)"><g clip-path="url(#9a4eb09bdf)"><path fill="#f5ab31" d="M 1175.269531 691.039062 C 1120.355469 671.007812 1084.988281 629.617188 1102.742188 580.988281 C 1117.34375 540.933594 1159.851562 518.125 1205.070312 522.503906 C 1209.425781 522.929688 1213.746094 523.597656 1218.027344 524.515625 C 1220.3125 524.972656 1222.605469 525.53125 1224.898438 526.1875 C 1228.035156 527.035156 1231.160156 528.027344 1234.285156 529.171875 C 1235.816406 529.734375 1237.339844 530.3125 1238.824219 530.929688 C 1242 532.238281 1245.09375 533.675781 1248.089844 535.1875 C 1252.496094 537.464844 1256.742188 540.003906 1260.832031 542.804688 C 1298.320312 568.570312 1316.222656 613.4375 1301.609375 653.515625 C 1283.871094 702.15625 1230.183594 711.070312 1175.269531 691.039062 Z M 1175.269531 691.039062 " fill-opacity="1" fill-rule="nonzero"/></g></g></g><g clip-path="url(#155b6074a5)"><g clip-path="url(#5a4fb49fa3)"><g clip-path="url(#64febfcb65)"><path fill="#f5ab31" d="M 1265.390625 561.75 C 1265.390625 561.75 1318.527344 539.824219 1327.789062 554.746094 C 1337.054688 569.667969 1303.023438 617.625 1303.023438 617.625 Z M 1265.390625 561.75 " fill-opacity="1" fill-rule="nonzero"/></g></g></g><g clip-path="url(#cb76aae15c)"><g clip-path="url(#c658390247)"><g clip-path="url(#e636caa0d3)"><path fill="#f5ab31" d="M 1186.214844 532.875 C 1186.214844 532.875 1159.65625 481.890625 1142.972656 487.347656 C 1126.289062 492.804688 1121.4375 551.394531 1121.4375 551.394531 Z M 1186.214844 532.875 " fill-opacity="1" fill-rule="nonzero"/></g></g></g><g clip-path="url(#18bbd37e3b)"><g clip-path="url(#0b8b394abf)"><g clip-path="url(#8fd0278f20)"><path fill="#fff3e7" d="M 1283.019531 564.175781 C 1283.019531 564.175781 1314.847656 550.972656 1321.101562 561.0625 C 1327.359375 571.152344 1304.351562 603.609375 1304.351562 603.609375 C 1300.472656 588.046875 1293.753906 574.609375 1283.019531 564.175781 Z M 1283.019531 564.175781 " fill-opacity="1" fill-rule="nonzero"/></g></g></g><g clip-path="url(#0c79695017)"><g clip-path="url(#581fbb75a4)"><g clip-path="url(#5a082f7c0a)"><path fill="#fff3e7" d="M 1171.996094 524.574219 C 1171.996094 524.574219 1156.03125 495.589844 1144.746094 499.285156 C 1133.460938 502.980469 1130.179688 542.617188 1130.179688 542.617188 C 1143.253906 532.925781 1156.984375 526.027344 1171.996094 524.574219 Z M 1171.996094 524.574219 " fill-opacity="1" fill-rule="nonzero"/></g></g></g><g clip-path="url(#aad92d7556)"><g clip-path="url(#062b907076)"><g clip-path="url(#1543166c5b)"><path fill="#62442f" d="M 1183.527344 608.605469 C 1183.363281 609.050781 1183.160156 609.476562 1182.914062 609.882812 C 1182.664062 610.285156 1182.382812 610.664062 1182.058594 611.011719 C 1181.738281 611.363281 1181.386719 611.675781 1181.003906 611.957031 C 1180.621094 612.238281 1180.210938 612.476562 1179.78125 612.675781 C 1179.351562 612.878906 1178.90625 613.03125 1178.445312 613.144531 C 1177.984375 613.257812 1177.515625 613.324219 1177.039062 613.34375 C 1176.566406 613.363281 1176.09375 613.335938 1175.625 613.261719 C 1175.15625 613.191406 1174.699219 613.070312 1174.253906 612.910156 C 1173.808594 612.746094 1173.382812 612.539062 1172.976562 612.292969 C 1172.570312 612.046875 1172.191406 611.761719 1171.84375 611.441406 C 1171.496094 611.117188 1171.179688 610.765625 1170.898438 610.382812 C 1170.621094 610 1170.378906 609.59375 1170.179688 609.160156 C 1169.980469 608.730469 1169.824219 608.285156 1169.710938 607.824219 C 1169.601562 607.363281 1169.535156 606.894531 1169.515625 606.421875 C 1169.496094 605.945312 1169.519531 605.472656 1169.59375 605.003906 C 1169.667969 604.535156 1169.785156 604.078125 1169.949219 603.632812 C 1170.113281 603.1875 1170.316406 602.761719 1170.5625 602.355469 C 1170.8125 601.949219 1171.09375 601.574219 1171.417969 601.222656 C 1171.738281 600.875 1172.089844 600.558594 1172.472656 600.277344 C 1172.859375 600 1173.265625 599.757812 1173.695312 599.558594 C 1174.125 599.359375 1174.570312 599.203125 1175.035156 599.09375 C 1175.496094 598.980469 1175.960938 598.914062 1176.4375 598.894531 C 1176.910156 598.875 1177.382812 598.902344 1177.851562 598.972656 C 1178.320312 599.046875 1178.777344 599.164062 1179.222656 599.328125 C 1179.671875 599.492188 1180.097656 599.695312 1180.5 599.945312 C 1180.90625 600.191406 1181.285156 600.476562 1181.632812 600.796875 C 1181.984375 601.117188 1182.296875 601.46875 1182.578125 601.855469 C 1182.859375 602.238281 1183.097656 602.644531 1183.296875 603.074219 C 1183.496094 603.503906 1183.652344 603.953125 1183.765625 604.414062 C 1183.878906 604.875 1183.941406 605.34375 1183.964844 605.816406 C 1183.984375 606.292969 1183.957031 606.761719 1183.882812 607.230469 C 1183.808594 607.699219 1183.691406 608.160156 1183.527344 608.605469 Z M 1183.527344 608.605469 " fill-opacity="1" fill-rule="nonzero"/></g></g></g><g clip-path="url(#3ca223c577)"><g clip-path="url(#1c34a6d6c5)"><g clip-path="url(#4f70f63fda)"><path fill="#62442f" d="M 1240.785156 629.480469 C 1240.621094 629.929688 1240.417969 630.355469 1240.171875 630.757812 C 1239.921875 631.164062 1239.640625 631.542969 1239.316406 631.890625 C 1238.996094 632.242188 1238.644531 632.554688 1238.261719 632.835938 C 1237.878906 633.117188 1237.46875 633.355469 1237.039062 633.554688 C 1236.609375 633.753906 1236.164062 633.910156 1235.703125 634.023438 C 1235.238281 634.132812 1234.773438 634.199219 1234.296875 634.21875 C 1233.824219 634.238281 1233.351562 634.214844 1232.882812 634.140625 C 1232.414062 634.066406 1231.957031 633.949219 1231.511719 633.785156 C 1231.0625 633.621094 1230.640625 633.417969 1230.234375 633.171875 C 1229.828125 632.921875 1229.449219 632.640625 1229.101562 632.316406 C 1228.75 631.996094 1228.4375 631.644531 1228.15625 631.261719 C 1227.875 630.878906 1227.636719 630.46875 1227.4375 630.039062 C 1227.238281 629.609375 1227.082031 629.164062 1226.96875 628.703125 C 1226.859375 628.238281 1226.792969 627.773438 1226.773438 627.296875 C 1226.753906 626.824219 1226.777344 626.351562 1226.851562 625.882812 C 1226.925781 625.414062 1227.042969 624.957031 1227.207031 624.511719 C 1227.371094 624.0625 1227.574219 623.640625 1227.820312 623.234375 C 1228.070312 622.828125 1228.351562 622.449219 1228.675781 622.101562 C 1228.996094 621.75 1229.347656 621.4375 1229.730469 621.15625 C 1230.113281 620.878906 1230.523438 620.636719 1230.953125 620.4375 C 1231.382812 620.238281 1231.828125 620.082031 1232.289062 619.96875 C 1232.753906 619.859375 1233.21875 619.792969 1233.695312 619.773438 C 1234.167969 619.753906 1234.640625 619.777344 1235.109375 619.851562 C 1235.578125 619.925781 1236.035156 620.042969 1236.480469 620.207031 C 1236.929688 620.371094 1237.351562 620.574219 1237.757812 620.820312 C 1238.164062 621.070312 1238.542969 621.351562 1238.890625 621.675781 C 1239.242188 621.996094 1239.554688 622.347656 1239.835938 622.730469 C 1240.117188 623.113281 1240.355469 623.523438 1240.554688 623.953125 C 1240.753906 624.382812 1240.910156 624.828125 1241.023438 625.289062 C 1241.132812 625.753906 1241.199219 626.21875 1241.21875 626.695312 C 1241.238281 627.167969 1241.214844 627.640625 1241.140625 628.109375 C 1241.066406 628.578125 1240.949219 629.035156 1240.785156 629.480469 Z M 1240.785156 629.480469 " fill-opacity="1" fill-rule="nonzero"/></g></g></g><g clip-path="url(#fcb4552a04)"><g clip-path="url(#bcfdae72d2)"><g clip-path="url(#13c635f859)"><path fill="#62442f" d="M 1262.667969 653.664062 C 1262.460938 653.59375 1262.277344 653.484375 1262.109375 653.339844 C 1261.945312 653.199219 1261.808594 653.03125 1261.707031 652.835938 C 1261.605469 652.640625 1261.542969 652.4375 1261.519531 652.21875 C 1261.496094 652 1261.511719 651.785156 1261.570312 651.574219 C 1261.628906 651.363281 1261.722656 651.167969 1261.855469 650.996094 C 1261.984375 650.820312 1262.144531 650.671875 1262.328125 650.558594 C 1262.515625 650.441406 1262.714844 650.363281 1262.933594 650.324219 C 1263.148438 650.285156 1263.363281 650.289062 1263.578125 650.332031 L 1284.808594 654.195312 C 1285.035156 654.238281 1285.242188 654.320312 1285.4375 654.445312 C 1285.628906 654.570312 1285.792969 654.726562 1285.921875 654.917969 C 1286.054688 655.105469 1286.144531 655.3125 1286.191406 655.539062 C 1286.242188 655.761719 1286.246094 655.988281 1286.203125 656.214844 C 1286.164062 656.441406 1286.078125 656.652344 1285.953125 656.84375 C 1285.828125 657.039062 1285.671875 657.199219 1285.484375 657.332031 C 1285.292969 657.460938 1285.085938 657.550781 1284.863281 657.597656 C 1284.636719 657.648438 1284.410156 657.652344 1284.183594 657.609375 L 1262.957031 653.742188 C 1262.859375 653.726562 1262.761719 653.699219 1262.667969 653.664062 Z M 1262.667969 653.664062 " fill-opacity="1" fill-rule="nonzero"/></g></g></g><g clip-path="url(#97850b2f0d)"><g clip-path="url(#81c3aa6bfa)"><g clip-path="url(#5d784b8864)"><path fill="#62442f" d="M 1279.433594 671.476562 L 1279.289062 671.425781 L 1259.734375 662.292969 C 1259.527344 662.195312 1259.34375 662.0625 1259.1875 661.894531 C 1259.03125 661.722656 1258.914062 661.53125 1258.835938 661.3125 C 1258.757812 661.097656 1258.722656 660.875 1258.734375 660.644531 C 1258.746094 660.414062 1258.800781 660.195312 1258.898438 659.984375 C 1258.996094 659.777344 1259.128906 659.59375 1259.296875 659.441406 C 1259.46875 659.285156 1259.660156 659.167969 1259.878906 659.089844 C 1260.09375 659.011719 1260.316406 658.976562 1260.546875 658.988281 C 1260.777344 659 1260.996094 659.054688 1261.207031 659.152344 L 1280.757812 668.277344 C 1280.960938 668.367188 1281.144531 668.496094 1281.300781 668.65625 C 1281.457031 668.820312 1281.578125 669.007812 1281.660156 669.214844 C 1281.742188 669.425781 1281.785156 669.644531 1281.785156 669.867188 C 1281.78125 670.09375 1281.738281 670.3125 1281.652344 670.519531 C 1281.566406 670.726562 1281.445312 670.914062 1281.285156 671.074219 C 1281.128906 671.234375 1280.945312 671.359375 1280.738281 671.449219 C 1280.53125 671.539062 1280.316406 671.585938 1280.089844 671.589844 C 1279.863281 671.59375 1279.648438 671.558594 1279.4375 671.476562 Z M 1279.433594 671.476562 " fill-opacity="1" fill-rule="nonzero"/></g></g></g><g clip-path="url(#3b4403f25a)"><g clip-path="url(#d3dd37303f)"><g clip-path="url(#f775cec109)"><path fill="#62442f" d="M 1137.796875 608.125 C 1137.703125 608.09375 1137.613281 608.050781 1137.527344 608 L 1118.761719 597.28125 C 1118.5625 597.167969 1118.394531 597.019531 1118.253906 596.839844 C 1118.113281 596.65625 1118.011719 596.457031 1117.953125 596.234375 C 1117.890625 596.011719 1117.875 595.789062 1117.90625 595.558594 C 1117.933594 595.332031 1118.003906 595.117188 1118.117188 594.917969 C 1118.234375 594.71875 1118.378906 594.550781 1118.5625 594.410156 C 1118.742188 594.269531 1118.945312 594.167969 1119.167969 594.105469 C 1119.386719 594.046875 1119.613281 594.03125 1119.839844 594.058594 C 1120.070312 594.085938 1120.28125 594.160156 1120.480469 594.273438 L 1139.214844 604.980469 C 1139.40625 605.085938 1139.570312 605.222656 1139.710938 605.390625 C 1139.851562 605.558594 1139.953125 605.75 1140.019531 605.957031 C 1140.089844 606.164062 1140.117188 606.378906 1140.101562 606.59375 C 1140.089844 606.8125 1140.039062 607.023438 1139.945312 607.21875 C 1139.855469 607.417969 1139.730469 607.59375 1139.570312 607.746094 C 1139.414062 607.894531 1139.234375 608.011719 1139.03125 608.097656 C 1138.828125 608.179688 1138.617188 608.222656 1138.398438 608.226562 C 1138.179688 608.230469 1137.96875 608.191406 1137.765625 608.113281 Z M 1137.796875 608.125 " fill-opacity="1" fill-rule="nonzero"/></g></g></g><g clip-path="url(#e2ebdeee6d)"><g clip-path="url(#61907d1c9c)"><g clip-path="url(#6f33e8943e)"><path fill="#62442f" d="M 1113.488281 610.960938 C 1113.273438 610.886719 1113.082031 610.773438 1112.910156 610.625 C 1112.742188 610.476562 1112.605469 610.300781 1112.503906 610.101562 C 1112.398438 609.898438 1112.339844 609.683594 1112.320312 609.457031 C 1112.304688 609.234375 1112.328125 609.011719 1112.398438 608.796875 C 1112.464844 608.582031 1112.574219 608.386719 1112.71875 608.210938 C 1112.863281 608.039062 1113.035156 607.898438 1113.234375 607.792969 C 1113.433594 607.683594 1113.644531 607.621094 1113.871094 607.597656 C 1114.097656 607.574219 1114.316406 607.59375 1114.535156 607.65625 L 1135.375 613.261719 C 1135.589844 613.328125 1135.78125 613.433594 1135.953125 613.578125 C 1136.125 613.71875 1136.265625 613.886719 1136.375 614.085938 C 1136.480469 614.28125 1136.546875 614.488281 1136.574219 614.710938 C 1136.601562 614.933594 1136.585938 615.152344 1136.527344 615.367188 C 1136.46875 615.585938 1136.371094 615.78125 1136.238281 615.960938 C 1136.101562 616.140625 1135.941406 616.285156 1135.75 616.402344 C 1135.558594 616.519531 1135.351562 616.59375 1135.132812 616.628906 C 1134.910156 616.667969 1134.691406 616.660156 1134.472656 616.613281 L 1113.632812 611.007812 Z M 1113.488281 610.960938 " fill-opacity="1" fill-rule="nonzero"/></g></g></g><g clip-path="url(#639a6a3f7b)"><g clip-path="url(#ef3dff84c5)"><g clip-path="url(#7d072b26cc)"><path fill="#d32027" d="M 1161.683594 614.617188 C 1161.332031 613.804688 1160.792969 613.140625 1160.070312 612.628906 C 1159.347656 612.117188 1158.546875 611.832031 1157.664062 611.769531 C 1156.523438 611.707031 1155.484375 612.003906 1154.546875 612.65625 C 1154.253906 611.550781 1153.648438 610.65625 1152.734375 609.972656 C 1152.023438 609.453125 1151.230469 609.152344 1150.351562 609.078125 C 1149.476562 609 1148.644531 609.152344 1147.851562 609.539062 C 1147.222656 609.863281 1146.683594 610.304688 1146.234375 610.855469 C 1145.789062 611.40625 1145.46875 612.023438 1145.28125 612.707031 C 1144.757812 614.570312 1144.945312 616.617188 1145.371094 618.492188 C 1145.75 620.113281 1146.316406 621.917969 1147.332031 623.328125 C 1147.589844 623.675781 1147.867188 624.003906 1148.167969 624.316406 C 1148.660156 624.8125 1149.226562 625.210938 1149.859375 625.511719 C 1150.535156 625.691406 1151.226562 625.746094 1151.925781 625.6875 C 1152.351562 625.640625 1152.777344 625.570312 1153.195312 625.464844 C 1154.882812 625.042969 1156.480469 624.023438 1157.8125 623.027344 C 1159.34375 621.871094 1160.804688 620.425781 1161.601562 618.65625 C 1161.894531 618.015625 1162.046875 617.347656 1162.0625 616.644531 C 1162.074219 615.941406 1161.949219 615.265625 1161.683594 614.617188 Z M 1161.683594 614.617188 " fill-opacity="1" fill-rule="nonzero"/></g></g></g><g clip-path="url(#ee1fc24a9b)"><g clip-path="url(#1560522786)"><g clip-path="url(#f9a403f58b)"><path fill="#d32027" d="M 1255.238281 648.734375 C 1254.886719 647.929688 1254.347656 647.273438 1253.628906 646.765625 C 1252.90625 646.257812 1252.109375 645.976562 1251.230469 645.914062 C 1250.089844 645.851562 1249.050781 646.144531 1248.113281 646.800781 C 1247.820312 645.695312 1247.214844 644.800781 1246.296875 644.117188 C 1245.589844 643.597656 1244.796875 643.300781 1243.917969 643.222656 C 1243.042969 643.144531 1242.210938 643.296875 1241.417969 643.683594 C 1240.789062 644.007812 1240.25 644.449219 1239.804688 645 C 1239.355469 645.550781 1239.039062 646.167969 1238.851562 646.851562 C 1238.320312 648.714844 1238.511719 650.761719 1238.933594 652.636719 C 1239.316406 654.257812 1239.882812 656.0625 1240.902344 657.472656 C 1241.15625 657.820312 1241.433594 658.148438 1241.734375 658.460938 C 1242.226562 658.957031 1242.789062 659.355469 1243.425781 659.65625 C 1244.101562 659.832031 1244.792969 659.890625 1245.488281 659.828125 C 1245.917969 659.785156 1246.34375 659.710938 1246.761719 659.609375 C 1248.449219 659.1875 1250.042969 658.167969 1251.378906 657.171875 C 1252.910156 656.015625 1254.371094 654.570312 1255.171875 652.800781 C 1255.464844 652.15625 1255.617188 651.484375 1255.628906 650.773438 C 1255.640625 650.066406 1255.511719 649.386719 1255.238281 648.734375 Z M 1255.238281 648.734375 " fill-opacity="1" fill-rule="nonzero"/></g></g></g><g clip-path="url(#fc5ba1bcce)"><g clip-path="url(#ed7d5fb8f4)"><g clip-path="url(#5f00014728)"><path fill="#fff3e7" d="M 1180.886719 621.027344 C 1184.855469 619.605469 1196.753906 618.050781 1204.105469 620.449219 C 1211.453125 622.847656 1219.921875 630.953125 1222.21875 634.503906 C 1227.96875 643.433594 1226.21875 650.550781 1220.855469 653.195312 C 1213.972656 656.589844 1197.574219 652.183594 1200.019531 634.488281 C 1189.039062 652.371094 1174.5625 641.054688 1172.945312 637.464844 C 1170.949219 633.054688 1170.566406 624.710938 1180.886719 621.027344 Z M 1180.886719 621.027344 " fill-opacity="1" fill-rule="nonzero"/></g></g></g><g clip-path="url(#5f0ddd16b0)"><g clip-path="url(#4308dab74e)"><g clip-path="url(#a1d333878f)"><path fill="#d32027" d="M 1212.300781 626.300781 C 1211.40625 628.738281 1206.378906 630.539062 1201.613281 628.796875 C 1196.84375 627.058594 1194.148438 622.457031 1195.042969 620.007812 C 1195.933594 617.5625 1200.515625 616.996094 1205.28125 618.734375 C 1210.050781 620.472656 1213.191406 623.863281 1212.300781 626.300781 Z M 1212.300781 626.300781 " fill-opacity="1" fill-rule="nonzero"/></g></g></g><g clip-path="url(#f3028b7f60)"><g clip-path="url(#d873942620)"><g clip-path="url(#2b27b036bc)"><path fill="#d32027" d="M 1231.578125 571.773438 C 1231.417969 572.171875 1231.21875 572.546875 1230.984375 572.902344 C 1230.75 573.261719 1230.480469 573.589844 1230.179688 573.894531 C 1229.878906 574.199219 1229.554688 574.46875 1229.199219 574.710938 C 1228.84375 574.949219 1228.472656 575.152344 1228.078125 575.316406 C 1227.683594 575.484375 1227.277344 575.609375 1226.859375 575.695312 C 1226.4375 575.78125 1226.015625 575.824219 1225.589844 575.828125 C 1225.160156 575.828125 1224.738281 575.789062 1224.320312 575.707031 C 1223.898438 575.625 1223.492188 575.503906 1223.09375 575.34375 L 1222.972656 575.300781 C 1222.582031 575.132812 1222.214844 574.929688 1221.863281 574.691406 C 1221.515625 574.453125 1221.191406 574.1875 1220.894531 573.886719 C 1220.597656 573.582031 1220.332031 573.257812 1220.101562 572.90625 C 1219.867188 572.550781 1219.671875 572.179688 1219.507812 571.789062 C 1219.347656 571.398438 1219.226562 570.996094 1219.144531 570.582031 C 1219.0625 570.167969 1219.019531 569.75 1219.019531 569.324219 C 1219.019531 568.902344 1219.058594 568.484375 1219.140625 568.070312 C 1219.21875 567.65625 1219.339844 567.25 1219.5 566.859375 C 1227.707031 546.78125 1226.664062 533.289062 1224.914062 526.199219 C 1228.046875 527.046875 1231.171875 528.042969 1234.296875 529.1875 C 1235.828125 529.746094 1237.351562 530.328125 1238.835938 530.941406 C 1239.761719 541.234375 1238.386719 555.066406 1231.578125 571.773438 Z M 1231.578125 571.773438 " fill-opacity="1" fill-rule="nonzero"/></g></g></g><g clip-path="url(#6f7ee19492)"><g clip-path="url(#bba65e7840)"><g clip-path="url(#0c65e256a3)"><path fill="#d32027" d="M 1253.585938 571.730469 C 1253.421875 572.128906 1253.222656 572.507812 1252.988281 572.863281 C 1252.75 573.222656 1252.480469 573.554688 1252.179688 573.859375 C 1251.878906 574.164062 1251.546875 574.4375 1251.191406 574.679688 C 1250.835938 574.917969 1250.460938 575.121094 1250.066406 575.289062 C 1249.667969 575.453125 1249.261719 575.582031 1248.839844 575.664062 C 1248.417969 575.75 1247.992188 575.792969 1247.5625 575.796875 C 1247.132812 575.796875 1246.707031 575.757812 1246.285156 575.675781 C 1245.867188 575.59375 1245.457031 575.46875 1245.058594 575.304688 L 1244.957031 575.269531 C 1244.566406 575.101562 1244.199219 574.898438 1243.847656 574.660156 C 1243.5 574.421875 1243.175781 574.148438 1242.878906 573.847656 C 1242.582031 573.546875 1242.316406 573.21875 1242.085938 572.863281 C 1241.851562 572.511719 1241.65625 572.140625 1241.492188 571.746094 C 1241.332031 571.355469 1241.210938 570.953125 1241.128906 570.535156 C 1241.046875 570.121094 1241.007812 569.703125 1241.007812 569.277344 C 1241.007812 568.855469 1241.046875 568.4375 1241.128906 568.019531 C 1241.210938 567.605469 1241.328125 567.203125 1241.488281 566.808594 C 1246.996094 553.304688 1248.367188 542.78125 1248.101562 535.195312 C 1252.503906 537.472656 1256.753906 540.011719 1260.84375 542.8125 C 1260.167969 551.097656 1258.035156 560.800781 1253.585938 571.730469 Z M 1253.585938 571.730469 " fill-opacity="1" fill-rule="nonzero"/></g></g></g><g clip-path="url(#1b5446cfac)"><g clip-path="url(#1bfd024b72)"><g clip-path="url(#ece5e19fa3)"><path fill="#d32027" d="M 1210.542969 558.585938 C 1210.378906 558.984375 1210.179688 559.363281 1209.945312 559.722656 C 1209.707031 560.082031 1209.4375 560.414062 1209.136719 560.71875 C 1208.835938 561.023438 1208.503906 561.296875 1208.148438 561.535156 C 1207.792969 561.777344 1207.417969 561.980469 1207.019531 562.148438 C 1206.625 562.3125 1206.214844 562.4375 1205.796875 562.523438 C 1205.375 562.609375 1204.949219 562.65625 1204.519531 562.65625 C 1204.089844 562.65625 1203.664062 562.617188 1203.242188 562.535156 C 1202.820312 562.453125 1202.410156 562.332031 1202.015625 562.167969 L 1201.914062 562.132812 C 1201.523438 561.964844 1201.15625 561.761719 1200.804688 561.523438 C 1200.457031 561.285156 1200.132812 561.015625 1199.835938 560.710938 C 1199.539062 560.410156 1199.273438 560.082031 1199.039062 559.730469 C 1198.804688 559.375 1198.609375 559.003906 1198.449219 558.613281 C 1198.289062 558.21875 1198.167969 557.816406 1198.085938 557.402344 C 1198.003906 556.984375 1197.960938 556.566406 1197.960938 556.140625 C 1197.960938 555.71875 1198.003906 555.296875 1198.085938 554.882812 C 1198.167969 554.46875 1198.289062 554.0625 1198.449219 553.671875 C 1203.867188 540.4375 1205.234375 530.078125 1205.054688 522.507812 C 1209.417969 522.929688 1213.742188 523.597656 1218.027344 524.515625 C 1217.917969 533.832031 1215.953125 545.304688 1210.542969 558.585938 Z M 1210.542969 558.585938 " fill-opacity="1" fill-rule="nonzero"/></g></g></g></svg>