<svg xmlns="http://www.w3.org/2000/svg" xmlns:xlink="http://www.w3.org/1999/xlink" width="1920" zoomAndPan="magnify" viewBox="0 0 1440 809.999993" height="1080" preserveAspectRatio="xMidYMid meet" version="1.0"><defs><clipPath id="236d08841c"><path d="M 1147 0 L 1239 0 L 1239 77.757812 L 1147 77.757812 Z M 1147 0 " clip-rule="nonzero"/></clipPath></defs><rect x="-144" width="1728" fill="#ffffff" y="-80.999999" height="971.999992" fill-opacity="1"/><rect x="-144" width="1728" fill="#e44145" y="-80.999999" height="971.999992" fill-opacity="1"/><path fill="#f5ab31" d="M 1129.21875 836.691406 C 1148.6875 845.761719 1171.625 830.824219 1171.625 830.824219 C 1171.625 830.824219 1174.027344 803.351562 1156.6875 790.816406 C 1174.292969 778.8125 1172.691406 751.34375 1172.691406 751.34375 C 1172.691406 751.34375 1150.019531 735.605469 1130.550781 744.140625 L 1130.285156 744.140625 C 1128.949219 722.535156 1104.414062 710 1104.414062 710 C 1104.414062 710 1079.339844 721.738281 1077.207031 742.808594 L 1076.941406 742.808594 C 1057.738281 733.738281 1034.800781 748.941406 1034.800781 748.941406 C 1034.800781 748.941406 1032.398438 776.414062 1049.734375 788.949219 C 1032.132812 800.953125 1033.730469 828.421875 1033.730469 828.421875 C 1033.730469 828.421875 1056.402344 844.160156 1075.875 835.625 L 1076.140625 835.625 C 1077.742188 856.695312 1102.277344 869.230469 1102.277344 869.230469 C 1102.011719 869.496094 1127.082031 857.761719 1129.21875 836.691406 Z M 1129.21875 836.691406 " fill-opacity="1" fill-rule="nonzero"/><path fill="#bf262d" d="M 1119.082031 818.289062 C 1130.816406 823.890625 1144.953125 814.554688 1144.953125 814.554688 C 1144.953125 814.554688 1146.285156 797.75 1135.886719 790.28125 C 1146.554688 783.082031 1145.753906 766.277344 1145.753906 766.277344 C 1145.753906 766.277344 1131.882812 756.675781 1120.148438 762.011719 C 1119.082031 749.207031 1104.144531 741.472656 1104.144531 741.472656 C 1104.144531 741.472656 1088.941406 748.675781 1087.609375 761.476562 C 1075.875 755.875 1062.003906 764.945312 1062.003906 764.945312 C 1062.003906 764.945312 1060.671875 781.75 1071.074219 789.214844 C 1060.402344 796.417969 1061.203125 813.21875 1061.203125 813.21875 C 1061.203125 813.21875 1075.074219 822.824219 1086.808594 817.488281 C 1087.875 830.289062 1102.8125 838.023438 1102.8125 838.023438 C 1102.546875 838.292969 1117.75 831.089844 1119.082031 818.289062 Z M 1119.082031 818.289062 " fill-opacity="1" fill-rule="nonzero"/><path fill="#fef1d6" d="M 1109.390625 779.375 C 1110.058594 779.761719 1110.679688 780.210938 1111.257812 780.722656 C 1111.835938 781.230469 1112.359375 781.789062 1112.828125 782.402344 C 1113.292969 783.015625 1113.699219 783.667969 1114.035156 784.359375 C 1114.375 785.050781 1114.644531 785.769531 1114.84375 786.515625 C 1115.039062 787.257812 1115.164062 788.015625 1115.210938 788.785156 C 1115.261719 789.554688 1115.234375 790.320312 1115.132812 791.085938 C 1115.027344 791.847656 1114.851562 792.59375 1114.605469 793.324219 C 1114.355469 794.054688 1114.035156 794.75 1113.648438 795.417969 C 1113.261719 796.082031 1112.8125 796.707031 1112.304688 797.285156 C 1111.796875 797.863281 1111.234375 798.386719 1110.621094 798.851562 C 1110.011719 799.320312 1109.359375 799.722656 1108.664062 800.0625 C 1107.972656 800.402344 1107.253906 800.671875 1106.511719 800.867188 C 1105.765625 801.066406 1105.007812 801.191406 1104.238281 801.238281 C 1103.472656 801.285156 1102.703125 801.261719 1101.941406 801.15625 C 1101.175781 801.054688 1100.429688 800.878906 1099.703125 800.628906 C 1098.972656 800.382812 1098.273438 800.0625 1097.609375 799.675781 C 1096.941406 799.289062 1096.320312 798.839844 1095.742188 798.332031 C 1095.164062 797.824219 1094.640625 797.261719 1094.171875 796.648438 C 1093.703125 796.035156 1093.300781 795.382812 1092.960938 794.691406 C 1092.625 794 1092.355469 793.28125 1092.15625 792.539062 C 1091.960938 791.792969 1091.835938 791.035156 1091.789062 790.265625 C 1091.738281 789.496094 1091.765625 788.730469 1091.867188 787.96875 C 1091.96875 787.203125 1092.144531 786.457031 1092.394531 785.730469 C 1092.644531 785 1092.960938 784.300781 1093.351562 783.636719 C 1093.738281 782.96875 1094.183594 782.347656 1094.695312 781.769531 C 1095.203125 781.191406 1095.765625 780.667969 1096.375 780.199219 C 1096.988281 779.730469 1097.640625 779.328125 1098.332031 778.988281 C 1099.023438 778.648438 1099.742188 778.382812 1100.488281 778.183594 C 1101.234375 777.984375 1101.988281 777.863281 1102.757812 777.8125 C 1103.527344 777.765625 1104.292969 777.792969 1105.058594 777.894531 C 1105.820312 777.996094 1106.566406 778.171875 1107.296875 778.421875 C 1108.027344 778.671875 1108.722656 778.988281 1109.390625 779.375 Z M 1109.390625 779.375 " fill-opacity="1" fill-rule="nonzero"/><g clip-path="url(#236d08841c)"><path fill="#fef1d6" d="M 1210.09375 56.082031 C 1222.828125 62.011719 1237.832031 52.242188 1237.832031 52.242188 C 1237.832031 52.242188 1239.402344 34.273438 1228.0625 26.074219 C 1239.578125 18.222656 1238.53125 0.253906 1238.53125 0.253906 C 1238.53125 0.253906 1223.699219 -10.039062 1210.964844 -4.457031 L 1210.789062 -4.457031 C 1209.917969 -18.589844 1193.867188 -26.789062 1193.867188 -26.789062 C 1193.867188 -26.789062 1177.46875 -19.113281 1176.070312 -5.328125 L 1175.898438 -5.328125 C 1163.335938 -11.261719 1148.332031 -1.316406 1148.332031 -1.316406 C 1148.332031 -1.316406 1146.761719 16.652344 1158.101562 24.851562 C 1146.589844 32.703125 1147.636719 50.671875 1147.636719 50.671875 C 1147.636719 50.671875 1162.464844 60.964844 1175.199219 55.382812 L 1175.375 55.382812 C 1176.421875 69.167969 1192.472656 77.367188 1192.472656 77.367188 C 1192.296875 77.539062 1208.695312 69.863281 1210.09375 56.082031 Z M 1210.09375 56.082031 " fill-opacity="1" fill-rule="nonzero"/></g><path fill="#bf262d" d="M 1203.460938 44.042969 C 1211.140625 47.707031 1220.386719 41.601562 1220.386719 41.601562 C 1220.386719 41.601562 1221.257812 30.609375 1214.453125 25.726562 C 1221.433594 21.015625 1220.910156 10.023438 1220.910156 10.023438 C 1220.910156 10.023438 1211.835938 3.742188 1204.160156 7.230469 C 1203.460938 -1.140625 1193.691406 -6.203125 1193.691406 -6.203125 C 1193.691406 -6.203125 1183.75 -1.492188 1182.875 6.882812 C 1175.199219 3.21875 1166.128906 9.152344 1166.128906 9.152344 C 1166.128906 9.152344 1165.253906 20.140625 1172.058594 25.027344 C 1165.082031 29.738281 1165.605469 40.730469 1165.605469 40.730469 C 1165.605469 40.730469 1174.675781 47.007812 1182.351562 43.519531 C 1183.050781 51.894531 1192.820312 56.953125 1192.820312 56.953125 C 1192.644531 57.128906 1202.589844 52.417969 1203.460938 44.042969 Z M 1203.460938 44.042969 " fill-opacity="1" fill-rule="nonzero"/><path fill="#f5ab31" d="M 1197.125 18.589844 C 1197.558594 18.84375 1197.964844 19.136719 1198.34375 19.46875 C 1198.722656 19.804688 1199.066406 20.171875 1199.371094 20.570312 C 1199.675781 20.972656 1199.941406 21.398438 1200.164062 21.851562 C 1200.382812 22.304688 1200.558594 22.773438 1200.6875 23.261719 C 1200.820312 23.746094 1200.898438 24.242188 1200.929688 24.746094 C 1200.964844 25.25 1200.945312 25.75 1200.878906 26.25 C 1200.8125 26.75 1200.695312 27.238281 1200.535156 27.714844 C 1200.371094 28.191406 1200.164062 28.648438 1199.910156 29.082031 C 1199.65625 29.519531 1199.363281 29.925781 1199.03125 30.304688 C 1198.695312 30.683594 1198.328125 31.023438 1197.929688 31.332031 C 1197.527344 31.636719 1197.101562 31.902344 1196.648438 32.121094 C 1196.195312 32.34375 1195.726562 32.519531 1195.238281 32.648438 C 1194.753906 32.777344 1194.257812 32.859375 1193.753906 32.890625 C 1193.25 32.921875 1192.75 32.90625 1192.25 32.839844 C 1191.75 32.773438 1191.261719 32.65625 1190.785156 32.492188 C 1190.308594 32.332031 1189.851562 32.121094 1189.417969 31.871094 C 1188.980469 31.617188 1188.574219 31.324219 1188.195312 30.988281 C 1187.816406 30.65625 1187.476562 30.289062 1187.167969 29.890625 C 1186.863281 29.488281 1186.597656 29.0625 1186.378906 28.609375 C 1186.15625 28.15625 1185.980469 27.6875 1185.851562 27.199219 C 1185.722656 26.710938 1185.640625 26.21875 1185.609375 25.714844 C 1185.578125 25.210938 1185.59375 24.710938 1185.660156 24.210938 C 1185.730469 23.710938 1185.84375 23.222656 1186.007812 22.746094 C 1186.171875 22.269531 1186.378906 21.8125 1186.632812 21.375 C 1186.882812 20.941406 1187.175781 20.535156 1187.511719 20.15625 C 1187.84375 19.777344 1188.210938 19.433594 1188.609375 19.128906 C 1189.011719 18.824219 1189.4375 18.558594 1189.890625 18.335938 C 1190.34375 18.117188 1190.8125 17.941406 1191.300781 17.8125 C 1191.789062 17.679688 1192.28125 17.601562 1192.785156 17.570312 C 1193.289062 17.539062 1193.789062 17.554688 1194.289062 17.621094 C 1194.789062 17.6875 1195.277344 17.804688 1195.753906 17.96875 C 1196.230469 18.128906 1196.6875 18.339844 1197.125 18.589844 Z M 1197.125 18.589844 " fill-opacity="1" fill-rule="nonzero"/><path fill="#bf262d" d="M 1393.246094 150.316406 C 1418.886719 162.257812 1449.097656 142.585938 1449.097656 142.585938 C 1449.097656 142.585938 1452.257812 106.410156 1429.425781 89.898438 C 1452.609375 74.09375 1450.5 37.914062 1450.5 37.914062 C 1450.5 37.914062 1420.644531 17.191406 1395.003906 28.429688 L 1394.652344 28.429688 C 1392.894531 -0.0234375 1360.578125 -16.53125 1360.578125 -16.53125 C 1360.578125 -16.53125 1327.5625 -1.074219 1324.753906 26.671875 L 1324.402344 26.671875 C 1299.109375 14.730469 1268.902344 34.753906 1268.902344 34.753906 C 1268.902344 34.753906 1265.742188 70.933594 1288.574219 87.441406 C 1265.390625 103.246094 1267.496094 139.425781 1267.496094 139.425781 C 1267.496094 139.425781 1297.355469 160.152344 1322.996094 148.910156 L 1323.347656 148.910156 C 1325.453125 176.660156 1357.769531 193.167969 1357.769531 193.167969 C 1357.417969 193.519531 1390.4375 178.066406 1393.246094 150.316406 Z M 1393.246094 150.316406 " fill-opacity="1" fill-rule="nonzero"/><path fill="#f5ab31" d="M 1379.898438 126.078125 C 1395.355469 133.457031 1413.972656 121.160156 1413.972656 121.160156 C 1413.972656 121.160156 1415.726562 99.03125 1402.027344 89.195312 C 1416.078125 79.714844 1415.023438 57.585938 1415.023438 57.585938 C 1415.023438 57.585938 1396.757812 44.9375 1381.304688 51.964844 C 1379.898438 35.105469 1360.230469 24.917969 1360.230469 24.917969 C 1360.230469 24.917969 1340.207031 34.402344 1338.449219 51.261719 C 1322.996094 43.886719 1304.730469 55.828125 1304.730469 55.828125 C 1304.730469 55.828125 1302.972656 77.957031 1316.671875 87.792969 C 1302.621094 97.277344 1303.675781 119.40625 1303.675781 119.40625 C 1303.675781 119.40625 1321.941406 132.050781 1337.398438 125.023438 C 1338.800781 141.886719 1358.472656 152.070312 1358.472656 152.070312 C 1358.121094 152.421875 1378.144531 142.9375 1379.898438 126.078125 Z M 1379.898438 126.078125 " fill-opacity="1" fill-rule="nonzero"/><path fill="#fef1d6" d="M 1367.136719 74.832031 C 1368.015625 75.34375 1368.832031 75.933594 1369.59375 76.605469 C 1370.355469 77.273438 1371.042969 78.011719 1371.660156 78.820312 C 1372.277344 79.625 1372.808594 80.484375 1373.253906 81.394531 C 1373.703125 82.308594 1374.054688 83.253906 1374.316406 84.234375 C 1374.574219 85.214844 1374.738281 86.210938 1374.800781 87.226562 C 1374.867188 88.238281 1374.832031 89.246094 1374.695312 90.253906 C 1374.5625 91.257812 1374.328125 92.242188 1374 93.203125 C 1373.671875 94.160156 1373.253906 95.082031 1372.746094 95.957031 C 1372.234375 96.835938 1371.644531 97.65625 1370.972656 98.417969 C 1370.304688 99.179688 1369.566406 99.867188 1368.757812 100.484375 C 1367.953125 101.097656 1367.09375 101.628906 1366.183594 102.078125 C 1365.269531 102.523438 1364.324219 102.878906 1363.34375 103.136719 C 1362.363281 103.398438 1361.367188 103.5625 1360.351562 103.625 C 1359.339844 103.6875 1358.332031 103.652344 1357.324219 103.519531 C 1356.320312 103.382812 1355.335938 103.152344 1354.375 102.824219 C 1353.417969 102.496094 1352.496094 102.078125 1351.621094 101.566406 C 1350.742188 101.058594 1349.921875 100.46875 1349.160156 99.796875 C 1348.398438 99.125 1347.710938 98.386719 1347.09375 97.582031 C 1346.480469 96.773438 1345.949219 95.914062 1345.5 95.003906 C 1345.054688 94.09375 1344.699219 93.148438 1344.441406 92.167969 C 1344.179688 91.1875 1344.015625 90.1875 1343.953125 89.175781 C 1343.890625 88.164062 1343.925781 87.152344 1344.058594 86.148438 C 1344.195312 85.140625 1344.425781 84.160156 1344.753906 83.199219 C 1345.082031 82.238281 1345.5 81.320312 1346.011719 80.441406 C 1346.519531 79.566406 1347.109375 78.746094 1347.78125 77.984375 C 1348.453125 77.222656 1349.191406 76.535156 1349.996094 75.917969 C 1350.804688 75.300781 1351.664062 74.769531 1352.574219 74.324219 C 1353.484375 73.875 1354.429688 73.523438 1355.410156 73.261719 C 1356.394531 73.003906 1357.390625 72.839844 1358.402344 72.777344 C 1359.414062 72.710938 1360.425781 72.746094 1361.429688 72.882812 C 1362.4375 73.015625 1363.417969 73.25 1364.378906 73.578125 C 1365.339844 73.90625 1366.257812 74.324219 1367.136719 74.832031 Z M 1367.136719 74.832031 " fill-opacity="1" fill-rule="nonzero"/></svg>